<svg width="50" height="50" viewBox="0 0 50 50" fill="none" xmlns="http://www.w3.org/2000/svg">
<rect x="0.5" y="0.5" width="49" height="49" rx="24.5" fill="white"/>
<rect x="0.5" y="0.5" width="49" height="49" rx="24.5" stroke="#EAEEF4"/>
<path d="M31.6665 31.0501H24.1082C23.7332 31.0501 23.4248 30.7417 23.4248 30.3667C23.4248 29.9917 23.7332 29.6834 24.1082 29.6834H31.6665C32.0415 29.6834 32.3498 29.9917 32.3498 30.3667C32.3498 30.7501 32.0415 31.0501 31.6665 31.0501Z" fill="#7E92A2"/>
<path d="M31.6665 25.8084H24.1082C23.7332 25.8084 23.4248 25.5001 23.4248 25.1251C23.4248 24.7501 23.7332 24.4417 24.1082 24.4417H31.6665C32.0415 24.4417 32.3498 24.7501 32.3498 25.1251C32.3498 25.5001 32.0415 25.8084 31.6665 25.8084Z" fill="#7E92A2"/>
<path d="M31.6665 20.5584H24.1082C23.7332 20.5584 23.4248 20.2501 23.4248 19.8751C23.4248 19.5001 23.7332 19.1917 24.1082 19.1917H31.6665C32.0415 19.1917 32.3498 19.5001 32.3498 19.8751C32.3498 20.2501 32.0415 20.5584 31.6665 20.5584Z" fill="#7E92A2"/>
<path d="M19.0915 21.6917C18.9082 21.6917 18.7332 21.6167 18.6082 21.4917L17.8498 20.7334C17.5832 20.4667 17.5832 20.0334 17.8498 19.7667C18.1165 19.5001 18.5498 19.5001 18.8165 19.7667L19.0915 20.0417L20.8748 18.2584C21.1415 17.9917 21.5748 17.9917 21.8415 18.2584C22.1082 18.5251 22.1082 18.9584 21.8415 19.2251L19.5748 21.4917C19.4415 21.6167 19.2748 21.6917 19.0915 21.6917Z" fill="#7E92A2"/>
<path d="M19.0915 26.9417C18.9165 26.9417 18.7415 26.8751 18.6082 26.7417L17.8498 25.9834C17.5832 25.7167 17.5832 25.2834 17.8498 25.0167C18.1165 24.7501 18.5498 24.7501 18.8165 25.0167L19.0915 25.2917L20.8748 23.5084C21.1415 23.2417 21.5748 23.2417 21.8415 23.5084C22.1082 23.7751 22.1082 24.2084 21.8415 24.4751L19.5748 26.7417C19.4415 26.8751 19.2665 26.9417 19.0915 26.9417Z" fill="#7E92A2"/>
<path d="M19.0915 31.9417C18.9165 31.9417 18.7415 31.8751 18.6082 31.7417L17.8498 30.9834C17.5832 30.7167 17.5832 30.2834 17.8498 30.0167C18.1165 29.7501 18.5498 29.7501 18.8165 30.0167L19.0915 30.2917L20.8748 28.5084C21.1415 28.2417 21.5748 28.2417 21.8415 28.5084C22.1082 28.7751 22.1082 29.2084 21.8415 29.4751L19.5748 31.7417C19.4415 31.8751 19.2665 31.9417 19.0915 31.9417Z" fill="#7E92A2"/>
</svg>
