<svg width="50" height="50" viewBox="0 0 50 50" fill="none" xmlns="http://www.w3.org/2000/svg">
<rect x="0.5" y="0.5" width="49" height="49" rx="24.5" fill="white"/>
<rect x="0.5" y="0.5" width="49" height="49" rx="24.5" stroke="#EAEEF4"/>
<path d="M25 28.1251C23.275 28.1251 21.875 26.7251 21.875 25.0001C21.875 23.2751 23.275 21.8751 25 21.8751C26.725 21.8751 28.125 23.2751 28.125 25.0001C28.125 26.7251 26.725 28.1251 25 28.1251ZM25 23.1251C23.9666 23.1251 23.125 23.9667 23.125 25.0001C23.125 26.0334 23.9666 26.8751 25 26.8751C26.0333 26.8751 26.875 26.0334 26.875 25.0001C26.875 23.9667 26.0333 23.1251 25 23.1251Z" fill="#7E92A2"/>
<path d="M27.675 33.4917C27.5 33.4917 27.325 33.4667 27.15 33.4251C26.6333 33.2834 26.2 32.9584 25.925 32.5001L25.825 32.3334C25.3333 31.4834 24.6583 31.4834 24.1666 32.3334L24.075 32.4917C23.8 32.9584 23.3666 33.2917 22.85 33.4251C22.325 33.5667 21.7833 33.4917 21.325 33.2167L19.8916 32.3917C19.3833 32.1001 19.0166 31.6251 18.8583 31.0501C18.7083 30.4751 18.7833 29.8834 19.075 29.3751C19.3166 28.9501 19.3833 28.5667 19.2416 28.3251C19.1 28.0834 18.7416 27.9417 18.25 27.9417C17.0333 27.9417 16.0416 26.9501 16.0416 25.7334V24.2667C16.0416 23.0501 17.0333 22.0584 18.25 22.0584C18.7416 22.0584 19.1 21.9167 19.2416 21.6751C19.3833 21.4334 19.325 21.0501 19.075 20.6251C18.7833 20.1167 18.7083 19.5167 18.8583 18.9501C19.0083 18.3751 19.375 17.9001 19.8916 17.6084L21.3333 16.7834C22.275 16.2251 23.5166 16.5501 24.0833 17.5084L24.1833 17.6751C24.675 18.5251 25.35 18.5251 25.8416 17.6751L25.9333 17.5167C26.5 16.5501 27.7416 16.2251 28.6916 16.7917L30.125 17.6167C30.6333 17.9084 31 18.3834 31.1583 18.9584C31.3083 19.5334 31.2333 20.1251 30.9416 20.6334C30.7 21.0584 30.6333 21.4417 30.775 21.6834C30.9166 21.9251 31.275 22.0667 31.7666 22.0667C32.9833 22.0667 33.975 23.0584 33.975 24.2751V25.7417C33.975 26.9584 32.9833 27.9501 31.7666 27.9501C31.275 27.9501 30.9166 28.0917 30.775 28.3334C30.6333 28.5751 30.6916 28.9584 30.9416 29.3834C31.2333 29.8917 31.3166 30.4917 31.1583 31.0584C31.0083 31.6334 30.6416 32.1084 30.125 32.4001L28.6833 33.2251C28.3666 33.4001 28.025 33.4917 27.675 33.4917ZM25 30.4084C25.7416 30.4084 26.4333 30.8751 26.9083 31.7001L27 31.8584C27.1 32.0334 27.2666 32.1584 27.4666 32.2084C27.6666 32.2584 27.8666 32.2334 28.0333 32.1334L29.475 31.3001C29.6916 31.1751 29.8583 30.9667 29.925 30.7167C29.9916 30.4667 29.9583 30.2084 29.8333 29.9917C29.3583 29.1751 29.3 28.3334 29.6666 27.6917C30.0333 27.0501 30.7916 26.6834 31.7416 26.6834C32.275 26.6834 32.7 26.2584 32.7 25.7251V24.2584C32.7 23.7334 32.275 23.3001 31.7416 23.3001C30.7916 23.3001 30.0333 22.9334 29.6666 22.2917C29.3 21.6501 29.3583 20.8084 29.8333 19.9917C29.9583 19.7751 29.9916 19.5167 29.925 19.2667C29.8583 19.0167 29.7 18.8167 29.4833 18.6834L28.0416 17.8584C27.6833 17.6417 27.2083 17.7667 26.9916 18.1334L26.9 18.2917C26.425 19.1167 25.7333 19.5834 24.9916 19.5834C24.25 19.5834 23.5583 19.1167 23.0833 18.2917L22.9916 18.1251C22.7833 17.7751 22.3166 17.6501 21.9583 17.8584L20.5166 18.6917C20.3 18.8167 20.1333 19.0251 20.0666 19.2751C20 19.5251 20.0333 19.7834 20.1583 20.0001C20.6333 20.8167 20.6916 21.6584 20.325 22.3001C19.9583 22.9417 19.2 23.3084 18.25 23.3084C17.7166 23.3084 17.2916 23.7334 17.2916 24.2667V25.7334C17.2916 26.2584 17.7166 26.6917 18.25 26.6917C19.2 26.6917 19.9583 27.0584 20.325 27.7001C20.6916 28.3417 20.6333 29.1834 20.1583 30.0001C20.0333 30.2167 20 30.4751 20.0666 30.7251C20.1333 30.9751 20.2916 31.1751 20.5083 31.3084L21.95 32.1334C22.125 32.2417 22.3333 32.2667 22.525 32.2167C22.725 32.1667 22.8916 32.0334 23 31.8584L23.0916 31.7001C23.5666 30.8834 24.2583 30.4084 25 30.4084Z" fill="#7E92A2"/>
</svg>
