<svg width="40" height="40" viewBox="0 0 40 40" fill="none" xmlns="http://www.w3.org/2000/svg">
<rect width="40" height="40" rx="20" fill="#E8C400"/>
<path d="M25 20.625H15C14.6583 20.625 14.375 20.3417 14.375 20C14.375 19.6583 14.6583 19.375 15 19.375H25C25.3417 19.375 25.625 19.6583 25.625 20C25.625 20.3417 25.3417 20.625 25 20.625Z" fill="#ECECFE"/>
<path d="M20 25.625C19.6583 25.625 19.375 25.3417 19.375 25V15C19.375 14.6583 19.6583 14.375 20 14.375C20.3417 14.375 20.625 14.6583 20.625 15V25C20.625 25.3417 20.3417 25.625 20 25.625Z" fill="#ECECFE"/>
</svg>
