<svg width="50" height="50" viewBox="0 0 50 50" fill="none" xmlns="http://www.w3.org/2000/svg">
<rect x="0.5" y="0.5" width="49" height="49" rx="24.5" fill="white"/>
<rect x="0.5" y="0.5" width="49" height="49" rx="24.5" stroke="#EAEEF4"/>
<path d="M31.6666 31.05H24.1082C23.7332 31.05 23.4249 30.7417 23.4249 30.3667C23.4249 29.9917 23.7332 29.6834 24.1082 29.6834H31.6666C32.0416 29.6834 32.3499 29.9917 32.3499 30.3667C32.3499 30.75 32.0416 31.05 31.6666 31.05Z" fill="#7E92A2"/>
<path d="M31.6666 25.8084H24.1082C23.7332 25.8084 23.4249 25.5 23.4249 25.125C23.4249 24.75 23.7332 24.4417 24.1082 24.4417H31.6666C32.0416 24.4417 32.3499 24.75 32.3499 25.125C32.3499 25.5 32.0416 25.8084 31.6666 25.8084Z" fill="#7E92A2"/>
<path d="M31.6666 20.5583H24.1082C23.7332 20.5583 23.4249 20.25 23.4249 19.875C23.4249 19.5 23.7332 19.1917 24.1082 19.1917H31.6666C32.0416 19.1917 32.3499 19.5 32.3499 19.875C32.3499 20.25 32.0416 20.5583 31.6666 20.5583Z" fill="#7E92A2"/>
<path d="M19.0916 21.6917C18.9082 21.6917 18.7332 21.6167 18.6082 21.4917L17.8499 20.7333C17.5832 20.4667 17.5832 20.0333 17.8499 19.7667C18.1166 19.5 18.5499 19.5 18.8166 19.7667L19.0916 20.0417L20.8749 18.2583C21.1416 17.9917 21.5749 17.9917 21.8416 18.2583C22.1082 18.525 22.1082 18.9583 21.8416 19.225L19.5749 21.4917C19.4416 21.6167 19.2749 21.6917 19.0916 21.6917Z" fill="#7E92A2"/>
<path d="M19.0916 26.9417C18.9166 26.9417 18.7416 26.875 18.6082 26.7417L17.8499 25.9834C17.5832 25.7167 17.5832 25.2833 17.8499 25.0167C18.1166 24.75 18.5499 24.75 18.8166 25.0167L19.0916 25.2917L20.8749 23.5083C21.1416 23.2417 21.5749 23.2417 21.8416 23.5083C22.1082 23.775 22.1082 24.2083 21.8416 24.475L19.5749 26.7417C19.4416 26.875 19.2666 26.9417 19.0916 26.9417Z" fill="#7E92A2"/>
<path d="M19.0916 31.9417C18.9166 31.9417 18.7416 31.875 18.6082 31.7417L17.8499 30.9834C17.5832 30.7167 17.5832 30.2833 17.8499 30.0167C18.1166 29.75 18.5499 29.75 18.8166 30.0167L19.0916 30.2917L20.8749 28.5083C21.1416 28.2417 21.5749 28.2417 21.8416 28.5083C22.1082 28.775 22.1082 29.2084 21.8416 29.475L19.5749 31.7417C19.4416 31.875 19.2666 31.9417 19.0916 31.9417Z" fill="#7E92A2"/>
</svg>
