<svg width="50" height="50" viewBox="0 0 50 50" fill="none" xmlns="http://www.w3.org/2000/svg">
<path d="M27.025 30.6833C26.8667 30.6833 26.7083 30.625 26.5833 30.5C26.3417 30.2583 26.3417 29.8583 26.5833 29.6166L31.2 25L26.5833 20.3833C26.3417 20.1416 26.3417 19.7416 26.5833 19.5C26.825 19.2583 27.225 19.2583 27.4667 19.5L32.525 24.5583C32.7667 24.8 32.7667 25.2 32.525 25.4416L27.4667 30.5C27.3417 30.625 27.1833 30.6833 27.025 30.6833Z" fill="#795E00"/>
<path d="M31.9417 25.625H17.9167C17.575 25.625 17.2917 25.3416 17.2917 25C17.2917 24.6583 17.575 24.375 17.9167 24.375H31.9417C32.2833 24.375 32.5667 24.6583 32.5667 25C32.5667 25.3416 32.2833 25.625 31.9417 25.625Z" fill="#795E00"/>
</svg>
