<svg width="50" height="50" viewBox="0 0 50 50" fill="none" xmlns="http://www.w3.org/2000/svg">
<rect x="0.5" y="0.5" width="49" height="49" rx="24.5" fill="white"/>
<rect x="0.5" y="0.5" width="49" height="49" rx="24.5" stroke="#EAEEF4"/>
<path d="M21.6667 19.7917C21.325 19.7917 21.0417 19.5084 21.0417 19.1667V16.6667C21.0417 16.325 21.325 16.0417 21.6667 16.0417C22.0083 16.0417 22.2917 16.325 22.2917 16.6667V19.1667C22.2917 19.5084 22.0083 19.7917 21.6667 19.7917Z" fill="#7E92A2"/>
<path d="M28.3333 19.7917C27.9917 19.7917 27.7083 19.5084 27.7083 19.1667V16.6667C27.7083 16.325 27.9917 16.0417 28.3333 16.0417C28.675 16.0417 28.9583 16.325 28.9583 16.6667V19.1667C28.9583 19.5084 28.675 19.7917 28.3333 19.7917Z" fill="#7E92A2"/>
<path d="M22.0833 27.0834C21.975 27.0834 21.8667 27.0584 21.7667 27.0167C21.6583 26.975 21.575 26.9167 21.4917 26.8417C21.3417 26.6834 21.25 26.475 21.25 26.25C21.25 26.1417 21.275 26.0334 21.3167 25.9334C21.3583 25.8334 21.4167 25.7417 21.4917 25.6584C21.575 25.5834 21.6583 25.525 21.7667 25.4833C22.0667 25.3583 22.4417 25.425 22.675 25.6584C22.825 25.8167 22.9167 26.0334 22.9167 26.25C22.9167 26.3 22.9083 26.3584 22.9 26.4167C22.8917 26.4667 22.875 26.5167 22.85 26.5667C22.8333 26.6167 22.8083 26.6667 22.775 26.7167C22.75 26.7584 22.7083 26.8 22.675 26.8417C22.5167 26.9917 22.3 27.0834 22.0833 27.0834Z" fill="#7E92A2"/>
<path d="M25 27.0834C24.8917 27.0834 24.7833 27.0584 24.6833 27.0167C24.575 26.975 24.4917 26.9167 24.4083 26.8417C24.2583 26.6833 24.1667 26.475 24.1667 26.25C24.1667 26.1417 24.1917 26.0333 24.2333 25.9333C24.275 25.8333 24.3333 25.7417 24.4083 25.6584C24.4917 25.5834 24.575 25.525 24.6833 25.4833C24.9833 25.35 25.3583 25.425 25.5917 25.6584C25.7417 25.8167 25.8333 26.0333 25.8333 26.25C25.8333 26.3 25.825 26.3584 25.8167 26.4167C25.8083 26.4667 25.7917 26.5167 25.7667 26.5667C25.75 26.6167 25.725 26.6667 25.6917 26.7167C25.6667 26.7583 25.625 26.8 25.5917 26.8417C25.4333 26.9917 25.2167 27.0834 25 27.0834Z" fill="#7E92A2"/>
<path d="M27.9167 27.0834C27.8083 27.0834 27.7 27.0584 27.6 27.0167C27.4917 26.975 27.4083 26.9167 27.325 26.8417C27.2917 26.8 27.2583 26.7583 27.225 26.7167C27.1917 26.6667 27.1667 26.6167 27.15 26.5667C27.125 26.5167 27.1083 26.4667 27.1 26.4167C27.0917 26.3584 27.0833 26.3 27.0833 26.25C27.0833 26.0333 27.175 25.8167 27.325 25.6584C27.4083 25.5834 27.4917 25.525 27.6 25.4833C27.9083 25.35 28.275 25.425 28.5083 25.6584C28.6583 25.8167 28.75 26.0333 28.75 26.25C28.75 26.3 28.7417 26.3584 28.7333 26.4167C28.725 26.4667 28.7083 26.5167 28.6833 26.5667C28.6667 26.6167 28.6417 26.6667 28.6083 26.7167C28.5833 26.7583 28.5417 26.8 28.5083 26.8417C28.35 26.9917 28.1333 27.0834 27.9167 27.0834Z" fill="#7E92A2"/>
<path d="M22.0833 30C21.975 30 21.8667 29.975 21.7667 29.9334C21.6667 29.8917 21.575 29.8334 21.4917 29.7584C21.3417 29.6 21.25 29.3834 21.25 29.1667C21.25 29.0584 21.275 28.95 21.3167 28.85C21.3583 28.7417 21.4167 28.65 21.4917 28.575C21.8 28.2667 22.3667 28.2667 22.675 28.575C22.825 28.7334 22.9167 28.95 22.9167 29.1667C22.9167 29.3834 22.825 29.6 22.675 29.7584C22.5167 29.9083 22.3 30 22.0833 30Z" fill="#7E92A2"/>
<path d="M25 30C24.7833 30 24.5667 29.9083 24.4083 29.7584C24.2583 29.6 24.1667 29.3834 24.1667 29.1667C24.1667 29.0584 24.1917 28.95 24.2333 28.85C24.275 28.7417 24.3333 28.65 24.4083 28.575C24.7167 28.2667 25.2833 28.2667 25.5917 28.575C25.6667 28.65 25.725 28.7417 25.7667 28.85C25.8083 28.95 25.8333 29.0584 25.8333 29.1667C25.8333 29.3834 25.7417 29.6 25.5917 29.7584C25.4333 29.9083 25.2167 30 25 30Z" fill="#7E92A2"/>
<path d="M27.9167 30C27.7 30 27.4833 29.9084 27.325 29.7584C27.25 29.6834 27.1917 29.5917 27.15 29.4834C27.1083 29.3834 27.0833 29.2751 27.0833 29.1667C27.0833 29.0584 27.1083 28.95 27.15 28.85C27.1917 28.7417 27.25 28.6501 27.325 28.5751C27.5167 28.3834 27.8083 28.2917 28.075 28.35C28.1333 28.3584 28.1833 28.375 28.2333 28.4C28.2833 28.4167 28.3333 28.4417 28.3833 28.4751C28.425 28.5001 28.4667 28.5417 28.5083 28.5751C28.6583 28.7334 28.75 28.9501 28.75 29.1667C28.75 29.3834 28.6583 29.6 28.5083 29.7584C28.35 29.9084 28.1333 30 27.9167 30Z" fill="#7E92A2"/>
<path d="M32.0833 23.2H17.9167C17.575 23.2 17.2917 22.9167 17.2917 22.575C17.2917 22.2333 17.575 21.95 17.9167 21.95H32.0833C32.425 21.95 32.7083 22.2333 32.7083 22.575C32.7083 22.9167 32.425 23.2 32.0833 23.2Z" fill="#7E92A2"/>
<path d="M28.3333 33.9584H21.6667C18.625 33.9584 16.875 32.2084 16.875 29.1667V22.0834C16.875 19.0417 18.625 17.2917 21.6667 17.2917H28.3333C31.375 17.2917 33.125 19.0417 33.125 22.0834V29.1667C33.125 32.2084 31.375 33.9584 28.3333 33.9584ZM21.6667 18.5417C19.2833 18.5417 18.125 19.7 18.125 22.0834V29.1667C18.125 31.55 19.2833 32.7084 21.6667 32.7084H28.3333C30.7167 32.7084 31.875 31.55 31.875 29.1667V22.0834C31.875 19.7 30.7167 18.5417 28.3333 18.5417H21.6667Z" fill="#7E92A2"/>
</svg>
