<svg width="50" height="50" viewBox="0 0 50 50" fill="none" xmlns="http://www.w3.org/2000/svg">
<path d="M19.6167 31.2666C19.1083 31.2666 18.6333 31.0916 18.2917 30.7666C17.8583 30.3583 17.65 29.7416 17.725 29.075L18.0333 26.375C18.0917 25.8666 18.4 25.1916 18.7583 24.825L25.6 17.5833C27.3083 15.775 29.0917 15.725 30.9 17.4333C32.7083 19.1416 32.7583 20.925 31.05 22.7333L24.2083 29.975C23.8583 30.35 23.2083 30.7 22.7 30.7833L20.0167 31.2416C19.875 31.25 19.75 31.2666 19.6167 31.2666ZM28.275 17.425C27.6333 17.425 27.075 17.825 26.5083 18.425L19.6667 25.675C19.5 25.85 19.3083 26.2666 19.275 26.5083L18.9667 29.2083C18.9333 29.4833 19 29.7083 19.15 29.85C19.3 29.9916 19.525 30.0416 19.8 30L22.4833 29.5416C22.725 29.5 23.125 29.2833 23.2917 29.1083L30.1333 21.8666C31.1667 20.7666 31.5417 19.75 30.0333 18.3333C29.3667 17.6916 28.7917 17.425 28.275 17.425Z" fill="#7E92A2"/>
<path d="M29.45 24.125C29.4333 24.125 29.4083 24.125 29.3917 24.125C26.7917 23.8666 24.7 21.8916 24.3 19.3083C24.25 18.9666 24.4833 18.65 24.825 18.5916C25.1667 18.5416 25.4833 18.775 25.5417 19.1166C25.8583 21.1333 27.4917 22.6833 29.525 22.8833C29.8667 22.9166 30.1167 23.225 30.0833 23.5666C30.0417 23.8833 29.7667 24.125 29.45 24.125Z" fill="#7E92A2"/>
<path d="M32.5 33.9583H17.5C17.1583 33.9583 16.875 33.675 16.875 33.3333C16.875 32.9916 17.1583 32.7083 17.5 32.7083H32.5C32.8417 32.7083 33.125 32.9916 33.125 33.3333C33.125 33.675 32.8417 33.9583 32.5 33.9583Z" fill="#7E92A2"/>
</svg>
