<svg width="20" height="20" viewBox="0 0 20 20" fill="none" xmlns="http://www.w3.org/2000/svg">
<path d="M6.45864 3.99829C6.39642 4.06051 6.3492 4.13551 6.30976 4.21773L6.30532 4.21328L0.0744036 18.2495L0.0805145 18.2556C-0.0350373 18.4795 0.15829 18.935 0.554388 19.3317C0.950487 19.7278 1.40603 19.9211 1.62991 19.8056L1.63546 19.8111L15.6717 13.5797L15.6672 13.5747C15.7489 13.5358 15.8239 13.4885 15.8867 13.4252C16.7544 12.5575 15.3472 9.74366 12.7446 7.14041C10.1407 4.53716 7.32695 3.13054 6.45864 3.99829Z" fill="#DD2E44"/>
<path d="M7.22195 6.50488L0.231065 17.8967L0.0744036 18.2495L0.0805145 18.2556C-0.0350373 18.4795 0.15829 18.935 0.554388 19.3317C0.683273 19.4606 0.817158 19.5584 0.948265 19.6411L9.4441 9.28257L7.22195 6.50488Z" fill="#EA596E"/>
<path d="M12.7839 7.09718C15.3783 9.69266 16.8188 12.4592 16 13.277C15.1816 14.0958 12.4151 12.6559 9.81904 10.0615C7.22413 7.46606 5.78417 4.69837 6.60248 3.88006C7.42134 3.06176 10.1879 4.50171 12.7839 7.09718Z" fill="#A0041E"/>
<path d="M10.3275 7.3988C10.217 7.48824 10.0726 7.53491 9.91978 7.51824C9.43757 7.46602 9.03203 7.29825 8.74815 7.03326C8.4476 6.75271 8.29927 6.37606 8.33983 5.99885C8.41094 5.33664 9.07536 4.72889 10.2081 4.8511C10.6486 4.89832 10.8453 4.75666 10.852 4.68889C10.8597 4.62167 10.6981 4.44112 10.2575 4.39334C9.77534 4.34112 9.3698 4.17335 9.08536 3.90836C8.78481 3.62781 8.63593 3.25115 8.67704 2.87394C8.74926 2.21174 9.41313 1.60399 10.5448 1.72676C10.8659 1.7612 11.0353 1.69509 11.107 1.65232C11.1642 1.61732 11.187 1.58399 11.1892 1.56454C11.1958 1.49732 11.0364 1.31677 10.5948 1.269C10.2898 1.23566 10.0687 0.962339 10.1025 0.656793C10.1353 0.351803 10.4081 0.131254 10.7142 0.164587C11.8458 0.286249 12.3658 1.02123 12.2941 1.68398C12.2219 2.34729 11.5581 2.95394 10.4253 2.83228C10.1042 2.79728 9.93644 2.86394 9.86422 2.90672C9.807 2.94116 9.78367 2.97505 9.78145 2.99394C9.77423 3.06172 9.93478 3.24171 10.3764 3.28949C11.5081 3.41171 12.028 4.14613 11.9564 4.80888C11.8847 5.47108 11.2208 6.07884 10.0887 5.95607C9.76756 5.92163 9.59868 5.98829 9.52646 6.03051C9.46868 6.06607 9.44646 6.0994 9.44424 6.11829C9.43702 6.18551 9.59757 6.36606 10.0387 6.41383C10.3431 6.44716 10.5648 6.72104 10.5309 7.02603C10.5153 7.17825 10.4381 7.30991 10.3275 7.3988Z" fill="#AA8DD8"/>
<path d="M17.0332 12.5365C18.1293 12.227 18.8854 12.7159 19.0654 13.3576C19.2454 13.9987 18.8554 14.8103 17.7599 15.1186C17.3321 15.2386 17.2038 15.443 17.221 15.508C17.2399 15.5736 17.4571 15.6814 17.8838 15.5608C18.9793 15.2525 19.7354 15.7414 19.9154 16.3825C20.0965 17.0241 19.7054 17.8346 18.6093 18.1435C18.1821 18.2635 18.0532 18.4685 18.0721 18.5335C18.0904 18.5985 18.3071 18.7063 18.7343 18.5863C19.0287 18.5035 19.3365 18.6752 19.4193 18.9702C19.5015 19.2657 19.3298 19.5724 19.0343 19.6557C17.9393 19.964 17.1827 19.4763 17.0016 18.8341C16.8216 18.193 17.2121 17.3824 18.3088 17.0736C18.7365 16.953 18.8648 16.7491 18.846 16.6836C18.8282 16.6186 18.6115 16.5102 18.1849 16.6302C17.0882 16.9391 16.3327 16.4514 16.1522 15.8086C15.9716 15.1675 16.3622 14.357 17.4582 14.0475C17.8849 13.9281 18.0132 13.7225 17.9954 13.6581C17.9765 13.5926 17.7604 13.4848 17.3332 13.6048C17.0377 13.6881 16.7316 13.5159 16.6483 13.2209C16.5655 12.9265 16.7377 12.6198 17.0332 12.5365Z" fill="#77B255"/>
<path d="M12.7779 11.0381C12.6146 11.0381 12.4535 10.9665 12.3435 10.8298C12.1518 10.5898 12.1913 10.2404 12.4302 10.0487C12.5513 9.95151 15.4401 7.68269 19.5227 8.26656C19.8266 8.30989 20.0377 8.591 19.9944 8.89488C19.951 9.1982 19.6722 9.41153 19.3655 9.36597C15.7584 8.85377 13.1507 10.8959 13.1251 10.9165C13.0218 10.9987 12.8996 11.0381 12.7779 11.0381Z" fill="#AA8DD8"/>
<path d="M3.19653 8.72705C3.14375 8.72705 3.08987 8.71927 3.03654 8.70372C2.74266 8.61539 2.57599 8.30595 2.66432 8.01207C3.29375 5.91603 3.86429 2.57114 3.1632 1.69894C3.08487 1.60006 2.96654 1.50284 2.69543 1.52339C2.17434 1.56339 2.22378 2.6628 2.22434 2.67391C2.24767 2.98001 2.01768 3.24667 1.71213 3.26945C1.40159 3.28834 1.13937 3.06279 1.1166 2.75669C1.05938 1.9906 1.2977 0.515092 2.6121 0.415651C3.19875 0.371208 3.68596 0.57509 4.02984 1.00285C5.34702 2.64225 4.00984 7.39487 3.72873 8.33151C3.65652 8.57206 3.43541 8.72705 3.19653 8.72705Z" fill="#77B255"/>
<path d="M14.1663 5.94945C14.6265 5.94945 14.9996 5.57637 14.9996 5.11614C14.9996 4.65592 14.6265 4.28284 14.1663 4.28284C13.7061 4.28284 13.333 4.65592 13.333 5.11614C13.333 5.57637 13.7061 5.94945 14.1663 5.94945Z" fill="#5C913B"/>
<path d="M1.11108 10.9492C1.72471 10.9492 2.22215 10.4518 2.22215 9.83813C2.22215 9.2245 1.72471 8.72705 1.11108 8.72705C0.497445 8.72705 0 9.2245 0 9.83813C0 10.4518 0.497445 10.9492 1.11108 10.9492Z" fill="#9266CC"/>
<path d="M18.055 11.5047C18.5152 11.5047 18.8883 11.1317 18.8883 10.6714C18.8883 10.2112 18.5152 9.83813 18.055 9.83813C17.5948 9.83813 17.2217 10.2112 17.2217 10.6714C17.2217 11.1317 17.5948 11.5047 18.055 11.5047Z" fill="#5C913B"/>
<path d="M13.0552 18.1713C13.5155 18.1713 13.8885 17.7982 13.8885 17.3379C13.8885 16.8777 13.5155 16.5046 13.0552 16.5046C12.595 16.5046 12.2219 16.8777 12.2219 17.3379C12.2219 17.7982 12.595 18.1713 13.0552 18.1713Z" fill="#5C913B"/>
<path d="M15.5549 3.17174C16.1686 3.17174 16.666 2.67429 16.666 2.06066C16.666 1.44703 16.1686 0.949585 15.5549 0.949585C14.9413 0.949585 14.4438 1.44703 14.4438 2.06066C14.4438 2.67429 14.9413 3.17174 15.5549 3.17174Z" fill="#FFCC4D"/>
<path d="M18.055 5.39391C18.5152 5.39391 18.8883 5.02082 18.8883 4.5606C18.8883 4.10038 18.5152 3.72729 18.055 3.72729C17.5948 3.72729 17.2217 4.10038 17.2217 4.5606C17.2217 5.02082 17.5948 5.39391 18.055 5.39391Z" fill="#FFCC4D"/>
<path d="M16.3882 7.61608C16.8485 7.61608 17.2215 7.24299 17.2215 6.78277C17.2215 6.32255 16.8485 5.94946 16.3882 5.94946C15.928 5.94946 15.5549 6.32255 15.5549 6.78277C15.5549 7.24299 15.928 7.61608 16.3882 7.61608Z" fill="#FFCC4D"/>
<path d="M4.16656 13.7269C4.62678 13.7269 4.99987 13.3538 4.99987 12.8936C4.99987 12.4334 4.62678 12.0603 4.16656 12.0603C3.70634 12.0603 3.33325 12.4334 3.33325 12.8936C3.33325 13.3538 3.70634 13.7269 4.16656 13.7269Z" fill="#FFCC4D"/>
</svg>
