<svg width="19" height="20" viewBox="0 0 19 20" fill="none" xmlns="http://www.w3.org/2000/svg">
<path d="M18.911 10.5445C18.911 9.39763 18.7068 8.29801 18.3325 7.28072C18.0766 10.2781 16.4787 11.8177 14.8089 11.1007C13.2449 10.4288 14.2989 7.80967 14.3768 6.55988C14.508 4.44129 14.3701 2.01624 10.5217 0C12.1208 3.05912 10.7069 4.95967 9.22409 5.07537C7.57884 5.20385 6.07208 3.66149 6.62829 1.15857C4.8273 2.48568 4.77501 4.71939 5.33066 6.16441C5.91023 7.67062 5.3073 8.92208 3.89399 9.06113C2.31437 9.21686 1.43668 7.36971 2.24595 4.42628C0.845431 6.07542 0 8.21125 0 10.5445C0 15.7667 4.23327 20 9.45548 20C14.6777 20 18.911 15.7667 18.911 10.5445Z" fill="#F4900C"/>
<path d="M15.2369 13.3249C15.3192 15.0403 13.8125 15.7127 13.0015 15.3879C11.8301 14.919 12.1444 14.1136 11.8429 12.445C11.5415 10.7764 10.3829 9.61783 8.66812 9.10779C9.91958 12.6302 7.97453 13.9284 6.95501 14.1603C5.91379 14.3973 4.86757 14.1598 4.74799 11.9316C3.53324 13.1408 2.78125 14.8139 2.78125 16.6627C2.78125 16.8674 2.79404 17.0687 2.81184 17.269C4.51939 18.9565 6.8649 19.9999 9.4557 19.9999C12.0465 19.9999 14.392 18.9565 16.0996 17.269C16.1174 17.0687 16.1302 16.8674 16.1302 16.6627C16.1302 15.4463 15.8053 14.3066 15.2369 13.3249Z" fill="#FFCC4D"/>
</svg>
