<svg width="1366" height="90" viewBox="0 0 1366 90" fill="none" xmlns="http://www.w3.org/2000/svg">
<g clip-path="url(#clip0_87_2675)">
<g clip-path="url(#clip1_87_2675)">
<rect width="90" height="90" fill="#F6FAFD"/>
<rect x="22" y="22" width="46" height="46" rx="4" fill="#726000"/>
<path d="M46.47 40.4099L48.93 39.1999C49.23 39.0499 49.31 38.6599 49.08 38.4199C48.19 37.4399 47.29 36.6199 46.57 35.9999C46.24 35.7199 45.75 35.9499 45.75 36.3799V39.9599C45.75 40.3299 46.14 40.5699 46.47 40.4099Z" fill="white"/>
<path d="M45.75 52.7399V54.3899C45.75 54.6899 46.02 54.9399 46.32 54.8899C49.05 54.4399 51.33 52.6099 52.41 50.1499C52.6 49.7299 52.14 49.3099 51.72 49.5099L46.03 52.2999C45.86 52.3799 45.75 52.5499 45.75 52.7399Z" fill="white"/>
<path d="M44.25 36.3599C44.25 35.9299 43.76 35.6999 43.43 35.9699C41.07 37.9499 36.88 42.1199 36.9 46.8999C36.9 50.9199 39.84 54.2499 43.68 54.8899C43.98 54.9399 44.25 54.6899 44.25 54.3899V36.3599Z" fill="white"/>
<path d="M46.44 45.4699L51.73 43.2499C52 43.1299 52.13 42.8199 52 42.5599C51.63 41.8299 51.2 41.1199 50.73 40.4599C50.59 40.2599 50.33 40.1999 50.11 40.2999L46.02 42.2899C45.85 42.3699 45.74 42.5499 45.74 42.7399V45.0099C45.75 45.3599 46.11 45.6099 46.44 45.4699Z" fill="white"/>
<path d="M52.83 47.3099C52.99 47.2299 53.09 47.0799 53.09 46.9099C53.09 46.2699 53.01 45.6399 52.87 45.0199C52.8 44.7199 52.47 44.5599 52.19 44.6799L46.05 47.2999C45.87 47.3799 45.75 47.5599 45.75 47.7599V49.9599C45.75 50.3299 46.14 50.5699 46.47 50.4099L52.37 47.5399L52.83 47.3099Z" fill="white"/>
<rect width="1" height="90" transform="translate(89)" fill="#EAEEF4"/>
<rect width="90" height="1" transform="translate(0 89)" fill="#EAEEF4"/>
</g>
<rect width="1366" height="1" transform="translate(0 89)" fill="#EAEEF4"/>
</g>
<defs>
<clipPath id="clip0_87_2675">
<rect width="1366" height="90" fill="white"/>
</clipPath>
<clipPath id="clip1_87_2675">
<rect width="90" height="90" fill="white"/>
</clipPath>
</defs>
</svg>
