<svg width="44" height="45" viewBox="0 0 44 45" fill="none" xmlns="http://www.w3.org/2000/svg">
<path d="M29.51 16.35L23.57 12.92C22.6 12.36 21.4 12.36 20.42 12.92L14.49 16.35C13.52 16.91 12.92 17.95 12.92 19.08V25.92C12.92 27.04 13.52 28.08 14.49 28.65L20.43 32.08C21.4 32.64 22.6 32.64 23.58 32.08L29.52 28.65C30.49 28.09 31.09 27.05 31.09 25.92V19.08C31.08 17.95 30.48 16.92 29.51 16.35ZM22 17.84C23.29 17.84 24.33 18.88 24.33 20.17C24.33 21.46 23.29 22.5 22 22.5C20.71 22.5 19.67 21.46 19.67 20.17C19.67 18.89 20.71 17.84 22 17.84ZM24.68 27.16H19.32C18.51 27.16 18.04 26.26 18.49 25.59C19.17 24.58 20.49 23.9 22 23.9C23.51 23.9 24.83 24.58 25.51 25.59C25.96 26.25 25.48 27.16 24.68 27.16Z" fill="#7E92A2"/>
</svg>
