<svg width="21" height="20" viewBox="0 0 21 20" fill="none" xmlns="http://www.w3.org/2000/svg">
<path d="M12.5251 15.6834C12.3667 15.6834 12.2084 15.6251 12.0834 15.5001C11.8417 15.2584 11.8417 14.8584 12.0834 14.6168L16.7001 10.0001L12.0834 5.38343C11.8417 5.14176 11.8417 4.74176 12.0834 4.5001C12.3251 4.25843 12.7251 4.25843 12.9667 4.5001L18.0251 9.55843C18.2667 9.8001 18.2667 10.2001 18.0251 10.4418L12.9667 15.5001C12.8417 15.6251 12.6834 15.6834 12.5251 15.6834Z" fill="#7E92A2"/>
<path d="M17.4417 10.6251H3.41675C3.07508 10.6251 2.79175 10.3418 2.79175 10.0001C2.79175 9.65843 3.07508 9.3751 3.41675 9.3751H17.4417C17.7834 9.3751 18.0667 9.65843 18.0667 10.0001C18.0667 10.3418 17.7834 10.6251 17.4417 10.6251Z" fill="#7E92A2"/>
</svg>
