<svg width="20" height="20" viewBox="0 0 20 20" fill="none" xmlns="http://www.w3.org/2000/svg">
<path d="M12.0248 15.6833C11.8665 15.6833 11.7082 15.625 11.5832 15.5C11.3415 15.2583 11.3415 14.8583 11.5832 14.6166L16.1998 9.99998L11.5832 5.38331C11.3415 5.14164 11.3415 4.74164 11.5832 4.49998C11.8248 4.25831 12.2248 4.25831 12.4665 4.49998L17.5248 9.55831C17.7665 9.79998 17.7665 10.2 17.5248 10.4416L12.4665 15.5C12.3415 15.625 12.1832 15.6833 12.0248 15.6833Z" fill="#7E92A2"/>
<path d="M16.9415 10.625H2.9165C2.57484 10.625 2.2915 10.3416 2.2915 9.99998C2.2915 9.65831 2.57484 9.37498 2.9165 9.37498H16.9415C17.2832 9.37498 17.5665 9.65831 17.5665 9.99998C17.5665 10.3416 17.2832 10.625 16.9415 10.625Z" fill="#7E92A2"/>
</svg>
