<svg width="20" height="20" viewBox="0 0 20 20" fill="none" xmlns="http://www.w3.org/2000/svg">
<path d="M12.5001 18.9584H7.50008C2.97508 18.9584 1.04175 17.0251 1.04175 12.5001V7.50008C1.04175 2.97508 2.97508 1.04175 7.50008 1.04175H11.6667C12.0084 1.04175 12.2917 1.32508 12.2917 1.66675C12.2917 2.00841 12.0084 2.29175 11.6667 2.29175H7.50008C3.65841 2.29175 2.29175 3.65841 2.29175 7.50008V12.5001C2.29175 16.3417 3.65841 17.7084 7.50008 17.7084H12.5001C16.3417 17.7084 17.7084 16.3417 17.7084 12.5001V8.33342C17.7084 7.99175 17.9917 7.70842 18.3334 7.70842C18.6751 7.70842 18.9584 7.99175 18.9584 8.33342V12.5001C18.9584 17.0251 17.0251 18.9584 12.5001 18.9584Z" fill="#D6E1E6"/>
<path d="M18.3334 8.9584H15.0001C12.1501 8.9584 11.0417 7.85007 11.0417 5.00007V1.66674C11.0417 1.41674 11.1917 1.18341 11.4251 1.09174C11.6584 0.991739 11.9251 1.05007 12.1084 1.22507L18.7751 7.89174C18.9501 8.06674 19.0084 8.34174 18.9084 8.57507C18.8084 8.8084 18.5834 8.9584 18.3334 8.9584ZM12.2917 3.17507V5.00007C12.2917 7.15007 12.8501 7.70841 15.0001 7.70841H16.8251L12.2917 3.17507Z" fill="#D6E1E6"/>
</svg>
