<svg width="20" height="20" viewBox="0 0 20 20" fill="none" xmlns="http://www.w3.org/2000/svg">
<path d="M16.4751 9.37501H13.1084C11.4334 9.37501 10.6251 8.63334 10.6251 7.10001V3.31667C10.6251 1.78334 11.4417 1.04167 13.1084 1.04167H16.4751C18.1501 1.04167 18.9584 1.78334 18.9584 3.31667V7.09167C18.9584 8.63334 18.1417 9.37501 16.4751 9.37501ZM13.1084 2.29167C11.9917 2.29167 11.8751 2.60834 11.8751 3.31667V7.09167C11.8751 7.80834 11.9917 8.11667 13.1084 8.11667H16.4751C17.5917 8.11667 17.7084 7.80001 17.7084 7.09167V3.31667C17.7084 2.60001 17.5917 2.29167 16.4751 2.29167H13.1084Z" fill="#7E92A2"/>
<path d="M16.4751 18.9583H13.1084C11.4334 18.9583 10.6251 18.1417 10.6251 16.475V13.1083C10.6251 11.4333 11.4417 10.625 13.1084 10.625H16.4751C18.1501 10.625 18.9584 11.4417 18.9584 13.1083V16.475C18.9584 18.1417 18.1417 18.9583 16.4751 18.9583ZM13.1084 11.875C12.1251 11.875 11.8751 12.125 11.8751 13.1083V16.475C11.8751 17.4583 12.1251 17.7083 13.1084 17.7083H16.4751C17.4584 17.7083 17.7084 17.4583 17.7084 16.475V13.1083C17.7084 12.125 17.4584 11.875 16.4751 11.875H13.1084Z" fill="#7E92A2"/>
<path d="M6.89175 9.37501H3.52508C1.85008 9.37501 1.04175 8.63334 1.04175 7.10001V3.31667C1.04175 1.78334 1.85841 1.04167 3.52508 1.04167H6.89175C8.56675 1.04167 9.37508 1.78334 9.37508 3.31667V7.09167C9.37508 8.63334 8.55842 9.37501 6.89175 9.37501ZM3.52508 2.29167C2.40841 2.29167 2.29175 2.60834 2.29175 3.31667V7.09167C2.29175 7.80834 2.40841 8.11667 3.52508 8.11667H6.89175C8.00842 8.11667 8.12508 7.80001 8.12508 7.09167V3.31667C8.12508 2.60001 8.00842 2.29167 6.89175 2.29167H3.52508Z" fill="#7E92A2"/>
<path d="M6.89175 18.9583H3.52508C1.85008 18.9583 1.04175 18.1417 1.04175 16.475V13.1083C1.04175 11.4333 1.85841 10.625 3.52508 10.625H6.89175C8.56675 10.625 9.37508 11.4417 9.37508 13.1083V16.475C9.37508 18.1417 8.55842 18.9583 6.89175 18.9583ZM3.52508 11.875C2.54175 11.875 2.29175 12.125 2.29175 13.1083V16.475C2.29175 17.4583 2.54175 17.7083 3.52508 17.7083H6.89175C7.87508 17.7083 8.12508 17.4583 8.12508 16.475V13.1083C8.12508 12.125 7.87508 11.875 6.89175 11.875H3.52508Z" fill="#7E92A2"/>
</svg>
