<svg width="20" height="20" viewBox="0 0 20 20" fill="none" xmlns="http://www.w3.org/2000/svg">
<path d="M12.0251 15.6833C11.8667 15.6833 11.7084 15.625 11.5834 15.5C11.3417 15.2583 11.3417 14.8583 11.5834 14.6166L16.2001 9.99998L11.5834 5.38331C11.3417 5.14164 11.3417 4.74164 11.5834 4.49998C11.8251 4.25831 12.2251 4.25831 12.4667 4.49998L17.5251 9.55831C17.7667 9.79998 17.7667 10.2 17.5251 10.4416L12.4667 15.5C12.3417 15.625 12.1834 15.6833 12.0251 15.6833Z" fill="#292D32"/>
<path d="M16.9417 10.625H2.91675C2.57508 10.625 2.29175 10.3416 2.29175 9.99998C2.29175 9.65831 2.57508 9.37498 2.91675 9.37498H16.9417C17.2834 9.37498 17.5667 9.65831 17.5667 9.99998C17.5667 10.3416 17.2834 10.625 16.9417 10.625Z" fill="#292D32"/>
</svg>
