<svg width="20" height="20" viewBox="0 0 20 20" fill="none" xmlns="http://www.w3.org/2000/svg">
<path d="M16.4751 9.37502H13.1084C11.4334 9.37502 10.6251 8.63335 10.6251 7.10002V3.31669C10.6251 1.78335 11.4417 1.04169 13.1084 1.04169H16.4751C18.1501 1.04169 18.9584 1.78335 18.9584 3.31669V7.09169C18.9584 8.63335 18.1417 9.37502 16.4751 9.37502ZM13.1084 2.29169C11.9917 2.29169 11.8751 2.60835 11.8751 3.31669V7.09169C11.8751 7.80835 11.9917 8.11669 13.1084 8.11669H16.4751C17.5917 8.11669 17.7084 7.80002 17.7084 7.09169V3.31669C17.7084 2.60002 17.5917 2.29169 16.4751 2.29169H13.1084Z" fill="#7E92A2"/>
<path d="M16.4751 18.9584H13.1084C11.4334 18.9584 10.6251 18.1417 10.6251 16.475V13.1084C10.6251 11.4334 11.4417 10.625 13.1084 10.625H16.4751C18.1501 10.625 18.9584 11.4417 18.9584 13.1084V16.475C18.9584 18.1417 18.1417 18.9584 16.4751 18.9584ZM13.1084 11.875C12.1251 11.875 11.8751 12.125 11.8751 13.1084V16.475C11.8751 17.4584 12.1251 17.7084 13.1084 17.7084H16.4751C17.4584 17.7084 17.7084 17.4584 17.7084 16.475V13.1084C17.7084 12.125 17.4584 11.875 16.4751 11.875H13.1084Z" fill="#7E92A2"/>
<path d="M6.89175 9.37502H3.52508C1.85008 9.37502 1.04175 8.63335 1.04175 7.10002V3.31669C1.04175 1.78335 1.85841 1.04169 3.52508 1.04169H6.89175C8.56675 1.04169 9.37508 1.78335 9.37508 3.31669V7.09169C9.37508 8.63335 8.55842 9.37502 6.89175 9.37502ZM3.52508 2.29169C2.40841 2.29169 2.29175 2.60835 2.29175 3.31669V7.09169C2.29175 7.80835 2.40841 8.11669 3.52508 8.11669H6.89175C8.00842 8.11669 8.12508 7.80002 8.12508 7.09169V3.31669C8.12508 2.60002 8.00842 2.29169 6.89175 2.29169H3.52508Z" fill="#7E92A2"/>
<path d="M6.89175 18.9584H3.52508C1.85008 18.9584 1.04175 18.1417 1.04175 16.475V13.1084C1.04175 11.4334 1.85841 10.625 3.52508 10.625H6.89175C8.56675 10.625 9.37508 11.4417 9.37508 13.1084V16.475C9.37508 18.1417 8.55842 18.9584 6.89175 18.9584ZM3.52508 11.875C2.54175 11.875 2.29175 12.125 2.29175 13.1084V16.475C2.29175 17.4584 2.54175 17.7084 3.52508 17.7084H6.89175C7.87508 17.7084 8.12508 17.4584 8.12508 16.475V13.1084C8.12508 12.125 7.87508 11.875 6.89175 11.875H3.52508Z" fill="#7E92A2"/>
</svg>
