<svg width="19" height="13" viewBox="0 0 19 13" fill="none" xmlns="http://www.w3.org/2000/svg">
<path d="M0 1.30682V12.9432H1.31818V4.10228H1.43182L5.06818 12.9432H6.34091L9.97727 4.10228H10.0909V12.9432H11.4091V1.30682H9.72727L5.77273 10.9659H5.63636L1.68182 1.30682H0Z" fill="#092C4C"/>
<path d="M13.6207 7.12501H18.8707V6.12501H15.3935V6.07955L16.8707 4.7841C18.1207 3.69319 18.6662 3.05682 18.6662 2.12501C18.6662 0.943188 17.6435 0.0568237 16.1435 0.0568237C14.6435 0.0568237 13.5753 0.92046 13.5753 2.21591H14.7571C14.7571 1.51137 15.3026 1.0341 16.1207 1.0341C16.8935 1.0341 17.4844 1.46591 17.4844 2.14773C17.4844 2.73864 17.0753 3.17046 16.2798 3.87501L13.6207 6.23864V7.12501Z" fill="#092C4C"/>
</svg>
