<svg width="50" height="50" viewBox="0 0 50 50" fill="none" xmlns="http://www.w3.org/2000/svg">
<rect x="0.5" y="0.5" width="49" height="49" rx="24.5" fill="#F6FAFD"/>
<rect x="0.5" y="0.5" width="49" height="49" rx="24.5" stroke="#EAEEF4"/>
<path d="M35.0199 29.82L31.8899 22.5C31.3199 21.16 30.4699 20.4 29.4999 20.35C28.5399 20.3 27.6099 20.97 26.8999 22.25L24.9999 25.66C24.5999 26.38 24.0299 26.81 23.4099 26.86C22.7799 26.92 22.1499 26.59 21.6399 25.94L21.4199 25.66C20.7099 24.77 19.8299 24.34 18.9299 24.43C18.0299 24.52 17.2599 25.14 16.7499 26.15L15.0199 29.6C14.3999 30.85 14.4599 32.3 15.1899 33.48C15.9199 34.66 17.1899 35.37 18.5799 35.37H31.3399C32.6799 35.37 33.9299 34.7 34.6699 33.58C35.4299 32.46 35.5499 31.05 35.0199 29.82Z" fill="#092C4C"/>
<path d="M19.9698 21.3801C21.8366 21.3801 23.3498 19.8668 23.3498 18.0001C23.3498 16.1334 21.8366 14.6201 19.9698 14.6201C18.1031 14.6201 16.5898 16.1334 16.5898 18.0001C16.5898 19.8668 18.1031 21.3801 19.9698 21.3801Z" fill="#092C4C"/>
</svg>
