<svg width="50" height="50" viewBox="0 0 50 50" fill="none" xmlns="http://www.w3.org/2000/svg">
<rect width="50" height="50" rx="25" fill="#E8C400"/>
<path d="M22.5001 16.6667C20.3168 16.6667 18.5418 18.4417 18.5418 20.6251C18.5418 22.7667 20.2168 24.5001 22.4001 24.5751C22.4668 24.5667 22.5334 24.5667 22.5834 24.5751C22.6001 24.5751 22.6084 24.5751 22.6251 24.5751C22.6334 24.5751 22.6334 24.5751 22.6418 24.5751C24.7751 24.5001 26.4501 22.7667 26.4584 20.6251C26.4584 18.4417 24.6834 16.6667 22.5001 16.6667Z" fill="white"/>
<path d="M26.7334 26.7917C24.4084 25.2417 20.6168 25.2417 18.2751 26.7917C17.2168 27.5001 16.6334 28.4584 16.6334 29.4834C16.6334 30.5084 17.2168 31.4584 18.2668 32.1584C19.4334 32.9417 20.9668 33.3334 22.5001 33.3334C24.0334 33.3334 25.5668 32.9417 26.7334 32.1584C27.7834 31.4501 28.3668 30.5001 28.3668 29.4667C28.3584 28.4417 27.7834 27.4917 26.7334 26.7917Z" fill="white"/>
<path d="M31.6584 21.1167C31.7918 22.7334 30.6418 24.1501 29.0501 24.3417C29.0418 24.3417 29.0418 24.3417 29.0334 24.3417H29.0084C28.9584 24.3417 28.9084 24.3417 28.8668 24.3584C28.0584 24.4001 27.3168 24.1417 26.7584 23.6667C27.6168 22.9001 28.1084 21.7501 28.0084 20.5001C27.9501 19.8251 27.7168 19.2084 27.3668 18.6834C27.6834 18.5251 28.0501 18.4251 28.4251 18.3917C30.0584 18.2501 31.5168 19.4667 31.6584 21.1167Z" fill="white"/>
<path d="M33.3251 28.8251C33.2584 29.6334 32.7418 30.3334 31.8751 30.8084C31.0418 31.2667 29.9918 31.4834 28.9501 31.4584C29.5501 30.9167 29.9001 30.2417 29.9668 29.5251C30.0501 28.4917 29.5584 27.5001 28.5751 26.7084C28.0168 26.2667 27.3668 25.9167 26.6584 25.6584C28.5001 25.1251 30.8168 25.4834 32.2418 26.6334C33.0084 27.2501 33.4001 28.0251 33.3251 28.8251Z" fill="white"/>
</svg>
