<svg width="50" height="50" viewBox="0 0 50 50" fill="none" xmlns="http://www.w3.org/2000/svg">
<rect width="50" height="50" rx="25" fill="#E8C400"/>
<path d="M32.575 20.8166C31.8667 20.0333 30.6833 19.6416 28.9667 19.6416H28.7667V19.6083C28.7667 18.2083 28.7667 16.475 25.6333 16.475H24.3667C21.2333 16.475 21.2333 18.2166 21.2333 19.6083V19.65H21.0333C19.3083 19.65 18.1333 20.0416 17.425 20.825C16.6 21.7416 16.625 22.975 16.7083 23.8166L16.7167 23.875L16.7812 24.5527C16.7931 24.6775 16.8603 24.7903 16.9652 24.8589C17.1651 24.9897 17.4995 25.2053 17.7 25.3166C17.8167 25.3916 17.9417 25.4583 18.0667 25.525C19.4917 26.3083 21.0583 26.8333 22.65 27.0916C22.725 27.875 23.0667 28.7916 24.8917 28.7916C26.7167 28.7916 27.075 27.8833 27.1333 27.075C28.8333 26.8 30.475 26.2083 31.9583 25.3416C32.0083 25.3166 32.0417 25.2916 32.0833 25.2666C32.4139 25.0798 32.7569 24.8495 33.0695 24.624C33.1637 24.5561 33.2239 24.451 33.2368 24.3356L33.25 24.2166L33.2917 23.825C33.3 23.775 33.3 23.7333 33.3083 23.675C33.375 22.8333 33.3583 21.6833 32.575 20.8166ZM25.9083 26.525C25.9083 27.4083 25.9083 27.5416 24.8833 27.5416C23.8583 27.5416 23.8583 27.3833 23.8583 26.5333V25.4833H25.9083V26.525ZM22.425 19.6083C22.425 18.1916 22.425 17.6666 24.3667 17.6666H25.6333C27.575 17.6666 27.575 18.2 27.575 19.6083V19.65H22.425V19.6083Z" fill="white"/>
<path d="M32.3946 26.4451C32.6892 26.3049 33.0286 26.5385 32.9991 26.8635L32.7 30.1583C32.525 31.825 31.8417 33.525 28.175 33.525H21.825C18.1583 33.525 17.475 31.825 17.3 30.1666L17.0161 27.0435C16.9869 26.7222 17.3185 26.4889 17.6124 26.6219C18.5619 27.0515 20.3145 27.8136 21.3971 28.0972C21.5341 28.1331 21.6448 28.2311 21.7048 28.3593C22.2106 29.441 23.3076 30.0166 24.8917 30.0166C26.4601 30.0166 27.571 29.4189 28.0784 28.3345C28.1385 28.2061 28.2493 28.1082 28.3863 28.0721C29.536 27.7696 31.4015 26.9177 32.3946 26.4451Z" fill="white"/>
</svg>
