<svg width="50" height="50" viewBox="0 0 50 50" fill="none" xmlns="http://www.w3.org/2000/svg">
<rect x="0.5" y="0.5" width="49" height="49" rx="24.5" fill="white"/>
<rect x="0.5" y="0.5" width="49" height="49" rx="24.5" stroke="#EAEEF4"/>
<path d="M31.475 26.4584H28.1083C26.4333 26.4584 25.625 25.6834 25.625 24.0834V18.4167C25.625 16.8167 26.4417 16.0417 28.1083 16.0417H31.475C33.15 16.0417 33.9583 16.8167 33.9583 18.4167V24.0834C33.9583 25.6834 33.1417 26.4584 31.475 26.4584ZM28.1083 17.2917C27.05 17.2917 26.875 17.5751 26.875 18.4167V24.0834C26.875 24.9251 27.05 25.2084 28.1083 25.2084H31.475C32.5333 25.2084 32.7083 24.9251 32.7083 24.0834V18.4167C32.7083 17.5751 32.5333 17.2917 31.475 17.2917H28.1083V17.2917Z" fill="#7E92A2"/>
<path d="M31.475 33.4585H28.1083C27.3384 33.4585 26.8662 33.2796 26.5842 33.0098C26.3066 32.744 26.125 32.3051 26.125 31.5835V30.0835C26.125 29.3633 26.308 28.9239 26.5869 28.6577C26.8704 28.3871 27.3432 28.2085 28.1083 28.2085H31.475C32.2449 28.2085 32.7171 28.3874 32.9991 28.6572C33.2768 28.9229 33.4583 29.3619 33.4583 30.0835V31.5835C33.4583 32.3037 33.2754 32.7431 32.9964 33.0093C32.713 33.2799 32.2401 33.4585 31.475 33.4585ZM28.1083 28.4585C27.5806 28.4585 27.0756 28.5174 26.7412 28.8518C26.4031 29.19 26.375 29.6764 26.375 30.0835V31.5835C26.375 31.9906 26.4031 32.477 26.7412 32.8152C27.0756 33.1496 27.5806 33.2085 28.1083 33.2085H31.475C32.0027 33.2085 32.5077 33.1496 32.8421 32.8152C33.1802 32.477 33.2083 31.9906 33.2083 31.5835V30.0835C33.2083 29.6764 33.1802 29.19 32.8421 28.8518C32.5077 28.5174 32.0027 28.4585 31.475 28.4585H28.1083Z" stroke="#7E92A2"/>
<path d="M21.8917 33.9584H18.525C16.85 33.9584 16.0417 33.1834 16.0417 31.5834V25.9167C16.0417 24.3167 16.8583 23.5417 18.525 23.5417H21.8917C23.5667 23.5417 24.375 24.3167 24.375 25.9167V31.5834C24.375 33.1834 23.5583 33.9584 21.8917 33.9584ZM18.525 24.7917C17.4667 24.7917 17.2917 25.0751 17.2917 25.9167V31.5834C17.2917 32.4251 17.4667 32.7084 18.525 32.7084H21.8917C22.95 32.7084 23.125 32.4251 23.125 31.5834V25.9167C23.125 25.0751 22.95 24.7917 21.8917 24.7917H18.525V24.7917Z" fill="#7E92A2"/>
<path d="M21.8917 22.2917H18.525C16.85 22.2917 16.0417 21.5167 16.0417 19.9167V18.4167C16.0417 16.8167 16.8583 16.0417 18.525 16.0417H21.8917C23.5667 16.0417 24.375 16.8167 24.375 18.4167V19.9167C24.375 21.5167 23.5583 22.2917 21.8917 22.2917ZM18.525 17.2917C17.4667 17.2917 17.2917 17.5751 17.2917 18.4167V19.9167C17.2917 20.7584 17.4667 21.0417 18.525 21.0417H21.8917C22.95 21.0417 23.125 20.7584 23.125 19.9167V18.4167C23.125 17.5751 22.95 17.2917 21.8917 17.2917H18.525V17.2917Z" fill="#7E92A2"/>
</svg>
