<svg width="50" height="50" viewBox="0 0 50 50" fill="none" xmlns="http://www.w3.org/2000/svg">
<rect x="0.5" y="0.5" width="49" height="49" rx="24.5" fill="white"/>
<rect x="0.5" y="0.5" width="49" height="49" rx="24.5" stroke="#EAEEF4"/>
<path d="M28.3333 33.9584H21.6667C17.8167 33.9584 17.1 32.1667 16.9167 30.4251L16.2917 23.7501C16.2 22.8751 16.175 21.5834 17.0417 20.6167C17.7917 19.7834 19.0333 19.3834 20.8333 19.3834H29.1667C30.975 19.3834 32.2167 19.7917 32.9583 20.6167C33.825 21.5834 33.8 22.8751 33.7083 23.7584L33.0833 30.4167C32.9 32.1667 32.1833 33.9584 28.3333 33.9584ZM20.8333 20.6251C19.425 20.6251 18.4583 20.9001 17.9667 21.4501C17.5583 21.9001 17.425 22.5917 17.5333 23.6251L18.1583 30.3001C18.3 31.6167 18.6583 32.7084 21.6667 32.7084H28.3333C31.3333 32.7084 31.7 31.6167 31.8417 30.2917L32.4667 23.6334C32.575 22.5917 32.4417 21.9001 32.0333 21.4501C31.5417 20.9001 30.575 20.6251 29.1667 20.6251H20.8333Z" fill="#7E92A2"/>
<path d="M28.3333 20.6251C27.9917 20.6251 27.7083 20.3417 27.7083 20.0001V19.3334C27.7083 17.8501 27.7083 17.2917 25.6667 17.2917H24.3333C22.2917 17.2917 22.2917 17.8501 22.2917 19.3334V20.0001C22.2917 20.3417 22.0083 20.6251 21.6667 20.6251C21.325 20.6251 21.0417 20.3417 21.0417 20.0001V19.3334C21.0417 17.8667 21.0417 16.0417 24.3333 16.0417H25.6667C28.9583 16.0417 28.9583 17.8667 28.9583 19.3334V20.0001C28.9583 20.3417 28.675 20.6251 28.3333 20.6251Z" fill="#7E92A2"/>
<path d="M25 28.9584C22.7083 28.9584 22.7083 27.5417 22.7083 26.6917V25.8334C22.7083 24.6584 22.9917 24.3751 24.1667 24.3751H25.8333C27.0083 24.3751 27.2917 24.6584 27.2917 25.8334V26.6667C27.2917 27.5334 27.2917 28.9584 25 28.9584ZM23.9583 25.6251C23.9583 25.6917 23.9583 25.7667 23.9583 25.8334V26.6917C23.9583 27.5501 23.9583 27.7084 25 27.7084C26.0417 27.7084 26.0417 27.5751 26.0417 26.6834V25.8334C26.0417 25.7667 26.0417 25.6917 26.0417 25.6251C25.975 25.6251 25.9 25.6251 25.8333 25.6251H24.1667C24.1 25.6251 24.025 25.6251 23.9583 25.6251Z" fill="#7E92A2"/>
<path d="M26.6667 27.3084C26.3583 27.3084 26.0833 27.0751 26.05 26.7584C26.0083 26.4167 26.25 26.1001 26.5917 26.0584C28.7917 25.7834 30.9 24.9501 32.675 23.6584C32.95 23.4501 33.3417 23.5167 33.55 23.8001C33.75 24.0751 33.6917 24.4667 33.4083 24.6751C31.4583 26.0917 29.1583 27.0001 26.7417 27.3084C26.7167 27.3084 26.6917 27.3084 26.6667 27.3084Z" fill="#7E92A2"/>
<path d="M23.3333 27.3167C23.3084 27.3167 23.2833 27.3167 23.2583 27.3167C20.975 27.0584 18.75 26.2251 16.825 24.9084C16.5417 24.7167 16.4667 24.3251 16.6583 24.0417C16.85 23.7584 17.2417 23.6834 17.525 23.8751C19.2833 25.0751 21.3083 25.8334 23.3917 26.0751C23.7333 26.1167 23.9833 26.4251 23.9417 26.7667C23.9167 27.0834 23.65 27.3167 23.3333 27.3167Z" fill="#7E92A2"/>
</svg>
