<svg width="50" height="50" viewBox="0 0 50 50" fill="none" xmlns="http://www.w3.org/2000/svg">
<path d="M25.0001 16.6667C20.4084 16.6667 16.6667 20.4084 16.6667 25.0001C16.6667 29.5917 20.4084 33.3334 25.0001 33.3334C29.5917 33.3334 33.3334 29.5917 33.3334 25.0001C33.3334 20.4084 29.5917 16.6667 25.0001 16.6667ZM27.8001 26.9167C28.0417 27.1584 28.0417 27.5584 27.8001 27.8001C27.6751 27.9251 27.5167 27.9834 27.3584 27.9834C27.2001 27.9834 27.0417 27.9251 26.9167 27.8001L25.0001 25.8834L23.0834 27.8001C22.9584 27.9251 22.8001 27.9834 22.6417 27.9834C22.4834 27.9834 22.3251 27.9251 22.2001 27.8001C21.9584 27.5584 21.9584 27.1584 22.2001 26.9167L24.1167 25.0001L22.2001 23.0834C21.9584 22.8417 21.9584 22.4417 22.2001 22.2001C22.4417 21.9584 22.8417 21.9584 23.0834 22.2001L25.0001 24.1167L26.9167 22.2001C27.1584 21.9584 27.5584 21.9584 27.8001 22.2001C28.0417 22.4417 28.0417 22.8417 27.8001 23.0834L25.8834 25.0001L27.8001 26.9167Z" fill="#7E92A2"/>
</svg>
