<svg width="50" height="50" viewBox="0 0 50 50" fill="none" xmlns="http://www.w3.org/2000/svg">
<rect x="0.5" y="0.5" width="49" height="49" rx="24.5" fill="white"/>
<rect x="0.5" y="0.5" width="49" height="49" rx="24.5" stroke="#EAEEF4"/>
<path d="M32.5001 20.6083C32.4834 20.6083 32.4584 20.6083 32.4334 20.6083C28.0251 20.1667 23.6251 20 19.2667 20.4417L17.5667 20.6083C17.2167 20.6417 16.9084 20.3917 16.8751 20.0417C16.8417 19.6917 17.0917 19.3917 17.4334 19.3583L19.1334 19.1917C23.5667 18.7417 28.0584 18.9167 32.5584 19.3583C32.9001 19.3917 33.1501 19.7 33.1167 20.0417C33.0917 20.3667 32.8167 20.6083 32.5001 20.6083Z" fill="#7E92A2"/>
<path d="M22.0834 19.7667C22.05 19.7667 22.0167 19.7667 21.975 19.7584C21.6417 19.7 21.4084 19.375 21.4667 19.0417L21.65 17.95C21.7834 17.15 21.9667 16.0417 23.9084 16.0417H26.0917C28.0417 16.0417 28.225 17.1917 28.35 17.9584L28.5334 19.0417C28.5917 19.3834 28.3584 19.7084 28.025 19.7584C27.6834 19.8167 27.3584 19.5834 27.3084 19.25L27.125 18.1667C27.0084 17.4417 26.9834 17.3 26.1 17.3H23.9167C23.0334 17.3 23.0167 17.4167 22.8917 18.1584L22.7 19.2417C22.65 19.55 22.3834 19.7667 22.0834 19.7667Z" fill="#7E92A2"/>
<path d="M27.675 33.9583H22.325C19.4167 33.9583 19.3 32.35 19.2083 31.05L18.6667 22.6583C18.6417 22.3167 18.9083 22.0167 19.25 21.9917C19.6 21.975 19.8917 22.2333 19.9167 22.575L20.4583 30.9667C20.55 32.2333 20.5833 32.7083 22.325 32.7083H27.675C29.425 32.7083 29.4583 32.2333 29.5417 30.9667L30.0833 22.575C30.1083 22.2333 30.4083 21.975 30.75 21.9917C31.0917 22.0167 31.3583 22.3083 31.3333 22.6583L30.7917 31.05C30.7 32.35 30.5833 33.9583 27.675 33.9583Z" fill="#7E92A2"/>
<path d="M26.3834 29.375H23.6084C23.2667 29.375 22.9834 29.0917 22.9834 28.75C22.9834 28.4083 23.2667 28.125 23.6084 28.125H26.3834C26.7251 28.125 27.0084 28.4083 27.0084 28.75C27.0084 29.0917 26.7251 29.375 26.3834 29.375Z" fill="#7E92A2"/>
<path d="M27.0834 26.0417H22.9167C22.5751 26.0417 22.2917 25.7584 22.2917 25.4167C22.2917 25.075 22.5751 24.7917 22.9167 24.7917H27.0834C27.4251 24.7917 27.7084 25.075 27.7084 25.4167C27.7084 25.7584 27.4251 26.0417 27.0834 26.0417Z" fill="#7E92A2"/>
</svg>
