<svg width="50" height="50" viewBox="0 0 50 50" fill="none" xmlns="http://www.w3.org/2000/svg">
<rect width="50" height="50" rx="25" fill="#E8C400"/>
<path d="M32.9167 24.0834V18.4167C32.9167 17.1667 32.3834 16.6667 31.0584 16.6667H27.6917C26.3667 16.6667 25.8334 17.1667 25.8334 18.4167V24.0834C25.8334 25.3334 26.3667 25.8334 27.6917 25.8334H31.0584C32.3834 25.8334 32.9167 25.3334 32.9167 24.0834Z" fill="white"/>
<path d="M24.1667 25.9167V31.5834C24.1667 32.8334 23.6334 33.3334 22.3084 33.3334H18.9417C17.6167 33.3334 17.0834 32.8334 17.0834 31.5834V25.9167C17.0834 24.6667 17.6167 24.1667 18.9417 24.1667H22.3084C23.6334 24.1667 24.1667 24.6667 24.1667 25.9167Z" fill="white"/>
<path d="M32.9167 31.5834V29.2501C32.9167 28.0001 32.3834 27.5001 31.0584 27.5001H27.6917C26.3667 27.5001 25.8334 28.0001 25.8334 29.2501V31.5834C25.8334 32.8334 26.3667 33.3334 27.6917 33.3334H31.0584C32.3834 33.3334 32.9167 32.8334 32.9167 31.5834Z" fill="white"/>
<path d="M24.1667 20.7501V18.4167C24.1667 17.1667 23.6334 16.6667 22.3084 16.6667H18.9417C17.6167 16.6667 17.0834 17.1667 17.0834 18.4167V20.7501C17.0834 22.0001 17.6167 22.5001 18.9417 22.5001H22.3084C23.6334 22.5001 24.1667 22.0001 24.1667 20.7501Z" fill="white"/>
</svg>
