<svg width="50" height="50" viewBox="0 0 50 50" fill="none" xmlns="http://www.w3.org/2000/svg">
<rect x="0.5" y="0.5" width="49" height="49" rx="24.5" fill="white"/>
<rect x="0.5" y="0.5" width="49" height="49" rx="24.5" stroke="#EAEEF4"/>
<path d="M22.633 24.6834C22.608 24.6834 22.5913 24.6834 22.5663 24.6834C22.5247 24.6751 22.4663 24.6751 22.4163 24.6834C19.9997 24.6084 18.1747 22.7084 18.1747 20.3667C18.1747 17.9834 20.1163 16.0417 22.4997 16.0417C24.883 16.0417 26.8247 17.9834 26.8247 20.3667C26.8163 22.7084 24.983 24.6084 22.658 24.6834C22.6497 24.6834 22.6413 24.6834 22.633 24.6834ZM22.4997 17.2917C20.808 17.2917 19.4247 18.6751 19.4247 20.3667C19.4247 22.0334 20.7247 23.3751 22.383 23.4334C22.433 23.4251 22.5413 23.4251 22.6497 23.4334C24.283 23.3584 25.5663 22.0167 25.5747 20.3667C25.5747 18.6751 24.1913 17.2917 22.4997 17.2917Z" fill="#7E92A2"/>
<path d="M28.783 24.7917C28.758 24.7917 28.733 24.7917 28.708 24.7834C28.3663 24.8167 28.0163 24.5751 27.983 24.2334C27.9497 23.8917 28.158 23.5834 28.4997 23.5417C28.5997 23.5334 28.708 23.5334 28.7997 23.5334C30.0163 23.4667 30.9663 22.4667 30.9663 21.2417C30.9663 19.9751 29.9413 18.9501 28.6747 18.9501C28.333 18.9584 28.0497 18.6751 28.0497 18.3334C28.0497 17.9917 28.333 17.7084 28.6747 17.7084C30.6247 17.7084 32.2163 19.3001 32.2163 21.2501C32.2163 23.1667 30.7163 24.7167 28.808 24.7917C28.7997 24.7917 28.7913 24.7917 28.783 24.7917Z" fill="#7E92A2"/>
<path d="M22.6413 33.7917C21.008 33.7917 19.3663 33.3751 18.1247 32.5417C16.9663 31.7751 16.333 30.7251 16.333 29.5834C16.333 28.4417 16.9663 27.3834 18.1247 26.6084C20.6247 24.9501 24.6747 24.9501 27.158 26.6084C28.308 27.3751 28.9497 28.4251 28.9497 29.5667C28.9497 30.7084 28.3163 31.7667 27.158 32.5417C25.908 33.3751 24.2747 33.7917 22.6413 33.7917ZM18.8163 27.6584C18.0163 28.1917 17.583 28.8751 17.583 29.5917C17.583 30.3001 18.0247 30.9834 18.8163 31.5084C20.8913 32.9001 24.3913 32.9001 26.4663 31.5084C27.2663 30.9751 27.6997 30.2917 27.6997 29.5751C27.6997 28.8667 27.258 28.1834 26.4663 27.6584C24.3913 26.2751 20.8913 26.2751 18.8163 27.6584Z" fill="#7E92A2"/>
<path d="M30.283 32.2917C29.9913 32.2917 29.733 32.0917 29.6747 31.7917C29.608 31.4501 29.8247 31.1251 30.158 31.0501C30.683 30.9417 31.1663 30.7334 31.5413 30.4417C32.0163 30.0834 32.2747 29.6334 32.2747 29.1584C32.2747 28.6834 32.0163 28.2334 31.5497 27.8834C31.183 27.6001 30.7247 27.4001 30.183 27.2751C29.8497 27.2001 29.633 26.8667 29.708 26.5251C29.783 26.1917 30.1163 25.9751 30.458 26.0501C31.1747 26.2084 31.7997 26.4917 32.308 26.8834C33.083 27.4667 33.5247 28.2917 33.5247 29.1584C33.5247 30.0251 33.0747 30.8501 32.2997 31.4417C31.783 31.8417 31.133 32.1334 30.4163 32.2751C30.3663 32.2917 30.3247 32.2917 30.283 32.2917Z" fill="#7E92A2"/>
</svg>
