<svg width="50" height="50" viewBox="0 0 50 50" fill="none" xmlns="http://www.w3.org/2000/svg">
<rect x="0.5" y="0.5" width="49" height="49" rx="24.5" fill="white"/>
<rect x="0.5" y="0.5" width="49" height="49" rx="24.5" stroke="#EAEEF4"/>
<path d="M24.5833 33.1251C19.875 33.1251 16.0416 29.2917 16.0416 24.5834C16.0416 19.8751 19.875 16.0417 24.5833 16.0417C29.2916 16.0417 33.125 19.8751 33.125 24.5834C33.125 29.2917 29.2916 33.1251 24.5833 33.1251ZM24.5833 17.2917C20.5583 17.2917 17.2916 20.5667 17.2916 24.5834C17.2916 28.6001 20.5583 31.8751 24.5833 31.8751C28.6083 31.8751 31.875 28.6001 31.875 24.5834C31.875 20.5667 28.6083 17.2917 24.5833 17.2917Z" fill="#7E92A2"/>
<path d="M33.3333 33.9584C33.175 33.9584 33.0166 33.9001 32.8916 33.7751L31.225 32.1084C30.9833 31.8667 30.9833 31.4667 31.225 31.2251C31.4666 30.9834 31.8666 30.9834 32.1083 31.2251L33.775 32.8917C34.0166 33.1334 34.0166 33.5334 33.775 33.7751C33.65 33.9001 33.4916 33.9584 33.3333 33.9584Z" fill="#7E92A2"/>
</svg>
