<svg width="50" height="50" viewBox="0 0 50 50" fill="none" xmlns="http://www.w3.org/2000/svg">
<path d="M24.9998 16.6666C20.4082 16.6666 16.6665 20.4083 16.6665 25C16.6665 29.5916 20.4082 33.3333 24.9998 33.3333C29.5915 33.3333 33.3332 29.5916 33.3332 25C33.3332 20.4083 29.5915 16.6666 24.9998 16.6666ZM27.7998 26.9166C28.0415 27.1583 28.0415 27.5583 27.7998 27.8C27.6748 27.925 27.5165 27.9833 27.3582 27.9833C27.1998 27.9833 27.0415 27.925 26.9165 27.8L24.9998 25.8833L23.0832 27.8C22.9582 27.925 22.7998 27.9833 22.6415 27.9833C22.4832 27.9833 22.3248 27.925 22.1998 27.8C21.9582 27.5583 21.9582 27.1583 22.1998 26.9166L24.1165 25L22.1998 23.0833C21.9582 22.8416 21.9582 22.4416 22.1998 22.2C22.4415 21.9583 22.8415 21.9583 23.0832 22.2L24.9998 24.1166L26.9165 22.2C27.1582 21.9583 27.5582 21.9583 27.7998 22.2C28.0415 22.4416 28.0415 22.8416 27.7998 23.0833L25.8832 25L27.7998 26.9166Z" fill="#7E92A2"/>
</svg>
