<svg width="50" height="50" viewBox="0 0 50 50" fill="none" xmlns="http://www.w3.org/2000/svg">
<rect x="0.5" y="0.5" width="49" height="49" rx="24.5" fill="white"/>
<rect x="0.5" y="0.5" width="49" height="49" rx="24.5" stroke="#EAEEF4"/>
<path d="M19.6167 31.2667C19.1083 31.2667 18.6333 31.0917 18.2917 30.7667C17.8583 30.3584 17.65 29.7417 17.725 29.075L18.0333 26.375C18.0917 25.8667 18.4 25.1917 18.7583 24.825L25.6 17.5834C27.3083 15.775 29.0917 15.725 30.9 17.4334C32.7083 19.1417 32.7583 20.925 31.05 22.7334L24.2083 29.975C23.8583 30.35 23.2083 30.7 22.7 30.7834L20.0167 31.2417C19.875 31.25 19.75 31.2667 19.6167 31.2667ZM28.275 17.425C27.6333 17.425 27.075 17.825 26.5083 18.425L19.6667 25.675C19.5 25.85 19.3083 26.2667 19.275 26.5084L18.9667 29.2084C18.9333 29.4834 19 29.7084 19.15 29.85C19.3 29.9917 19.525 30.0417 19.8 30L22.4833 29.5417C22.725 29.5 23.125 29.2834 23.2917 29.1084L30.1333 21.8667C31.1667 20.7667 31.5417 19.75 30.0333 18.3334C29.3667 17.6917 28.7917 17.425 28.275 17.425Z" fill="#7E92A2"/>
<path d="M29.45 24.125C29.4333 24.125 29.4083 24.125 29.3917 24.125C26.7917 23.8667 24.7 21.8917 24.3 19.3084C24.25 18.9667 24.4833 18.65 24.825 18.5917C25.1667 18.5417 25.4833 18.775 25.5417 19.1167C25.8583 21.1334 27.4917 22.6834 29.525 22.8834C29.8667 22.9167 30.1167 23.225 30.0833 23.5667C30.0417 23.8834 29.7667 24.125 29.45 24.125Z" fill="#7E92A2"/>
<path d="M32.5 33.9584H17.5C17.1583 33.9584 16.875 33.675 16.875 33.3334C16.875 32.9917 17.1583 32.7084 17.5 32.7084H32.5C32.8417 32.7084 33.125 32.9917 33.125 33.3334C33.125 33.675 32.8417 33.9584 32.5 33.9584Z" fill="#7E92A2"/>
</svg>
