<svg width="50" height="50" viewBox="0 0 50 50" fill="none" xmlns="http://www.w3.org/2000/svg">
<rect x="0.5" y="0.5" width="49" height="49" rx="24.5" fill="white"/>
<rect x="0.5" y="0.5" width="49" height="49" rx="24.5" stroke="#EAEEF4"/>
<path d="M24.5834 33.125C19.8751 33.125 16.0417 29.2917 16.0417 24.5833C16.0417 19.875 19.8751 16.0417 24.5834 16.0417C29.2917 16.0417 33.1251 19.875 33.1251 24.5833C33.1251 29.2917 29.2917 33.125 24.5834 33.125ZM24.5834 17.2917C20.5584 17.2917 17.2917 20.5667 17.2917 24.5833C17.2917 28.6 20.5584 31.875 24.5834 31.875C28.6084 31.875 31.8751 28.6 31.8751 24.5833C31.8751 20.5667 28.6084 17.2917 24.5834 17.2917Z" fill="#7E92A2"/>
<path d="M33.3334 33.9583C33.1751 33.9583 33.0167 33.9 32.8917 33.775L31.2251 32.1083C30.9834 31.8667 30.9834 31.4667 31.2251 31.225C31.4667 30.9833 31.8667 30.9833 32.1084 31.225L33.7751 32.8917C34.0168 33.1333 34.0168 33.5333 33.7751 33.775C33.6501 33.9 33.4917 33.9583 33.3334 33.9583Z" fill="#7E92A2"/>
</svg>
