<svg width="50" height="50" viewBox="0 0 50 50" fill="none" xmlns="http://www.w3.org/2000/svg">
<rect x="0.5" y="0.5" width="49" height="49" rx="24.5" fill="white"/>
<rect x="0.5" y="0.5" width="49" height="49" rx="24.5" stroke="#EAEEF4"/>
<path d="M25 28.125C23.275 28.125 21.875 26.725 21.875 25C21.875 23.275 23.275 21.875 25 21.875C26.725 21.875 28.125 23.275 28.125 25C28.125 26.725 26.725 28.125 25 28.125ZM25 23.125C23.9666 23.125 23.125 23.9667 23.125 25C23.125 26.0333 23.9666 26.875 25 26.875C26.0333 26.875 26.875 26.0333 26.875 25C26.875 23.9667 26.0333 23.125 25 23.125Z" fill="#7E92A2"/>
<path d="M27.675 33.4917C27.5 33.4917 27.325 33.4667 27.15 33.425C26.6333 33.2833 26.2 32.9583 25.925 32.5L25.825 32.3333C25.3333 31.4833 24.6583 31.4833 24.1666 32.3333L24.075 32.4917C23.8 32.9583 23.3666 33.2917 22.85 33.425C22.325 33.5667 21.7833 33.4917 21.325 33.2167L19.8916 32.3917C19.3833 32.1 19.0166 31.625 18.8583 31.05C18.7083 30.475 18.7833 29.8833 19.075 29.375C19.3166 28.95 19.3833 28.5667 19.2416 28.325C19.1 28.0833 18.7416 27.9417 18.25 27.9417C17.0333 27.9417 16.0416 26.95 16.0416 25.7333V24.2667C16.0416 23.05 17.0333 22.0583 18.25 22.0583C18.7416 22.0583 19.1 21.9167 19.2416 21.675C19.3833 21.4333 19.325 21.05 19.075 20.625C18.7833 20.1167 18.7083 19.5167 18.8583 18.95C19.0083 18.375 19.375 17.9 19.8916 17.6083L21.3333 16.7833C22.275 16.225 23.5166 16.55 24.0833 17.5083L24.1833 17.675C24.675 18.525 25.35 18.525 25.8416 17.675L25.9333 17.5167C26.5 16.55 27.7416 16.225 28.6916 16.7917L30.125 17.6167C30.6333 17.9083 31 18.3833 31.1583 18.9583C31.3083 19.5333 31.2333 20.125 30.9416 20.6333C30.7 21.0583 30.6333 21.4417 30.775 21.6833C30.9166 21.925 31.275 22.0667 31.7666 22.0667C32.9833 22.0667 33.975 23.0583 33.975 24.275V25.7417C33.975 26.9583 32.9833 27.95 31.7666 27.95C31.275 27.95 30.9166 28.0917 30.775 28.3333C30.6333 28.575 30.6916 28.9583 30.9416 29.3833C31.2333 29.8917 31.3166 30.4917 31.1583 31.0583C31.0083 31.6333 30.6416 32.1083 30.125 32.4L28.6833 33.225C28.3666 33.4 28.025 33.4917 27.675 33.4917ZM25 30.4083C25.7416 30.4083 26.4333 30.875 26.9083 31.7L27 31.8583C27.1 32.0333 27.2666 32.1583 27.4666 32.2083C27.6666 32.2583 27.8666 32.2333 28.0333 32.1333L29.475 31.3C29.6916 31.175 29.8583 30.9667 29.925 30.7167C29.9916 30.4667 29.9583 30.2083 29.8333 29.9917C29.3583 29.175 29.3 28.3333 29.6666 27.6917C30.0333 27.05 30.7916 26.6833 31.7416 26.6833C32.275 26.6833 32.7 26.2583 32.7 25.725V24.2583C32.7 23.7333 32.275 23.3 31.7416 23.3C30.7916 23.3 30.0333 22.9333 29.6666 22.2917C29.3 21.65 29.3583 20.8083 29.8333 19.9917C29.9583 19.775 29.9916 19.5167 29.925 19.2667C29.8583 19.0167 29.7 18.8167 29.4833 18.6833L28.0416 17.8583C27.6833 17.6417 27.2083 17.7667 26.9916 18.1333L26.9 18.2917C26.425 19.1167 25.7333 19.5833 24.9916 19.5833C24.25 19.5833 23.5583 19.1167 23.0833 18.2917L22.9916 18.125C22.7833 17.775 22.3166 17.65 21.9583 17.8583L20.5166 18.6917C20.3 18.8167 20.1333 19.025 20.0666 19.275C20 19.525 20.0333 19.7833 20.1583 20C20.6333 20.8167 20.6916 21.6583 20.325 22.3C19.9583 22.9417 19.2 23.3083 18.25 23.3083C17.7166 23.3083 17.2916 23.7333 17.2916 24.2667V25.7333C17.2916 26.2583 17.7166 26.6917 18.25 26.6917C19.2 26.6917 19.9583 27.0583 20.325 27.7C20.6916 28.3417 20.6333 29.1833 20.1583 30C20.0333 30.2167 20 30.475 20.0666 30.725C20.1333 30.975 20.2916 31.175 20.5083 31.3083L21.95 32.1333C22.125 32.2417 22.3333 32.2667 22.525 32.2167C22.725 32.1667 22.8916 32.0333 23 31.8583L23.0916 31.7C23.5666 30.8833 24.2583 30.4083 25 30.4083Z" fill="#7E92A2"/>
</svg>
