<svg width="50" height="50" viewBox="0 0 50 50" fill="none" xmlns="http://www.w3.org/2000/svg">
<rect x="0.5" y="0.5" width="49" height="49" rx="24.5" fill="white"/>
<rect x="0.5" y="0.5" width="49" height="49" rx="24.5" stroke="#EAEEF4"/>
<path d="M24.5834 33.1251C19.8751 33.1251 16.0417 29.2917 16.0417 24.5834C16.0417 19.8751 19.8751 16.0417 24.5834 16.0417C29.2917 16.0417 33.1251 19.8751 33.1251 24.5834C33.1251 29.2917 29.2917 33.1251 24.5834 33.1251ZM24.5834 17.2917C20.5584 17.2917 17.2917 20.5667 17.2917 24.5834C17.2917 28.6001 20.5584 31.8751 24.5834 31.8751C28.6084 31.8751 31.8751 28.6001 31.8751 24.5834C31.8751 20.5667 28.6084 17.2917 24.5834 17.2917Z" fill="#7E92A2"/>
<path d="M33.3334 33.9584C33.1751 33.9584 33.0167 33.9001 32.8917 33.7751L31.2251 32.1084C30.9834 31.8667 30.9834 31.4667 31.2251 31.2251C31.4667 30.9834 31.8667 30.9834 32.1084 31.2251L33.7751 32.8917C34.0168 33.1334 34.0168 33.5334 33.7751 33.7751C33.6501 33.9001 33.4917 33.9584 33.3334 33.9584Z" fill="#7E92A2"/>
</svg>
