<svg width="50" height="50" viewBox="0 0 50 50" fill="none" xmlns="http://www.w3.org/2000/svg">
<path d="M25.0001 16.6666C20.4084 16.6666 16.6667 20.4083 16.6667 25C16.6667 29.5916 20.4084 33.3333 25.0001 33.3333C29.5917 33.3333 33.3334 29.5916 33.3334 25C33.3334 20.4083 29.5917 16.6666 25.0001 16.6666ZM27.8001 26.9166C28.0417 27.1583 28.0417 27.5583 27.8001 27.8C27.6751 27.925 27.5167 27.9833 27.3584 27.9833C27.2001 27.9833 27.0417 27.925 26.9167 27.8L25.0001 25.8833L23.0834 27.8C22.9584 27.925 22.8001 27.9833 22.6417 27.9833C22.4834 27.9833 22.3251 27.925 22.2001 27.8C21.9584 27.5583 21.9584 27.1583 22.2001 26.9166L24.1167 25L22.2001 23.0833C21.9584 22.8416 21.9584 22.4416 22.2001 22.2C22.4417 21.9583 22.8417 21.9583 23.0834 22.2L25.0001 24.1166L26.9167 22.2C27.1584 21.9583 27.5584 21.9583 27.8001 22.2C28.0417 22.4416 28.0417 22.8416 27.8001 23.0833L25.8834 25L27.8001 26.9166Z" fill="#7E92A2"/>
</svg>
