<svg width="50" height="50" viewBox="0 0 50 50" fill="none" xmlns="http://www.w3.org/2000/svg">
<path d="M27.0251 30.6833C26.8667 30.6833 26.7084 30.625 26.5834 30.5C26.3417 30.2583 26.3417 29.8583 26.5834 29.6166L31.2001 25L26.5834 20.3833C26.3417 20.1416 26.3417 19.7416 26.5834 19.5C26.8251 19.2583 27.2251 19.2583 27.4667 19.5L32.5251 24.5583C32.7667 24.8 32.7667 25.2 32.5251 25.4416L27.4667 30.5C27.3417 30.625 27.1834 30.6833 27.0251 30.6833Z" fill="#726000"/>
<path d="M31.9417 25.625H17.9167C17.5751 25.625 17.2917 25.3416 17.2917 25C17.2917 24.6583 17.5751 24.375 17.9167 24.375H31.9417C32.2834 24.375 32.5667 24.6583 32.5667 25C32.5667 25.3416 32.2834 25.625 31.9417 25.625Z" fill="#726000"/>
</svg>
