<svg width="129" height="33" viewBox="0 0 129 33" fill="none" xmlns="http://www.w3.org/2000/svg">
<path opacity="0.1" fill-rule="evenodd" clip-rule="evenodd" d="M1.26944 22.0443C1.26944 22.0443 6.26829 21.3119 11.9517 23.0714C22.7612 26.418 23.3778 20.2896 27.3861 17.3346C31.0532 14.6311 34.0903 16.2806 38.1734 19.5868C41.1848 22.0252 45.5736 26.1184 50.1187 25.4595C54.2734 24.8571 57.2187 20.0564 62.9775 18.8355C67.5417 17.8678 71.2509 20.5262 76.5066 19.5868C83.6365 18.3124 86.8212 10.8099 91.9169 10.8099C98.2062 10.8099 102.634 4.4646 108.356 4.4646C114.043 4.4646 114.815 8.19581 121.037 10.8099C125.793 12.8084 128.082 10.8099 128.082 10.8099V32.2254H1.26944V22.0443Z" fill="url(#paint0_linear_17_1251)"/>
<path d="M1.26936 18.7179C1.26936 18.7179 6.26821 17.9961 11.9516 19.7302C22.7611 23.0283 23.3777 16.9886 27.386 14.0764C31.0531 11.412 34.0902 13.0377 38.1733 16.296C41.1847 18.6991 45.5735 22.733 50.1186 22.0836C54.2733 21.49 57.2186 16.7587 62.9774 15.5555C67.5416 14.6019 71.2508 17.2218 76.5066 16.296C83.6364 15.04 86.8212 7.64615 91.9169 7.64615C98.2061 7.64615 102.634 1.37756 108.356 1.37756C114.043 1.37756 114.345 5.06987 120.567 7.64615C125.324 9.61574 128.082 7.64615 128.082 7.64615" stroke="#997700" stroke-width="1.84723" stroke-linecap="round" stroke-linejoin="round"/>
<defs>
<linearGradient id="paint0_linear_17_1251" x1="24.1878" y1="18.5506" x2="24.1878" y2="32.2254" gradientUnits="userSpaceOnUse">
<stop stop-color="#997700"/>
<stop offset="1" stop-color="white" stop-opacity="0.01"/>
</linearGradient>
</defs>
</svg>
