<svg width="20" height="20" viewBox="0 0 20 20" fill="none" xmlns="http://www.w3.org/2000/svg">
<path d="M10.0168 17.1084C8.07512 17.1084 6.13345 16.8001 4.29178 16.1834C3.59178 15.9417 3.05845 15.4501 2.82511 14.8084C2.58345 14.1667 2.66678 13.4584 3.05011 12.8251L4.00845 11.2334C4.20845 10.9001 4.39178 10.2334 4.39178 9.84173V7.4334C4.39178 4.3334 6.91678 1.8084 10.0168 1.8084C13.1168 1.8084 15.6418 4.3334 15.6418 7.4334V9.84173C15.6418 10.2251 15.8251 10.9001 16.0251 11.2417L16.9751 12.8251C17.3334 13.4251 17.4001 14.1501 17.1584 14.8084C16.9168 15.4667 16.3918 15.9667 15.7334 16.1834C13.9001 16.8001 11.9584 17.1084 10.0168 17.1084ZM10.0168 3.0584C7.60845 3.0584 5.64178 5.01673 5.64178 7.4334V9.84173C5.64178 10.4501 5.39178 11.3501 5.08345 11.8751L4.12511 13.4667C3.94178 13.7751 3.89178 14.1001 4.00011 14.3751C4.10011 14.6584 4.35011 14.8751 4.69178 14.9917C8.17511 16.1584 11.8668 16.1584 15.3501 14.9917C15.6501 14.8917 15.8834 14.6667 15.9918 14.3667C16.1001 14.0667 16.0751 13.7417 15.9084 13.4667L14.9501 11.8751C14.6334 11.3334 14.3918 10.4417 14.3918 9.8334V7.4334C14.3918 5.01673 12.4334 3.0584 10.0168 3.0584Z" fill="#7E92A2"/>
<path d="M11.5668 3.2834C11.5084 3.2834 11.4501 3.27507 11.3918 3.2584C11.1501 3.19173 10.9168 3.14173 10.6918 3.1084C9.98345 3.01673 9.30011 3.06673 8.65845 3.2584C8.42511 3.3334 8.17511 3.2584 8.01678 3.0834C7.85845 2.9084 7.80845 2.6584 7.90011 2.4334C8.24178 1.5584 9.07511 0.983398 10.0251 0.983398C10.9751 0.983398 11.8084 1.55007 12.1501 2.4334C12.2334 2.6584 12.1918 2.9084 12.0334 3.0834C11.9084 3.21673 11.7334 3.2834 11.5668 3.2834Z" fill="#7E92A2"/>
<path d="M10.0168 19.0084C9.19178 19.0084 8.39178 18.6751 7.80845 18.0917C7.22511 17.5084 6.89178 16.7084 6.89178 15.8834H8.14178C8.14178 16.3751 8.34178 16.8584 8.69178 17.2084C9.04178 17.5584 9.52512 17.7584 10.0168 17.7584C11.0501 17.7584 11.8918 16.9167 11.8918 15.8834H13.1418C13.1418 17.6084 11.7418 19.0084 10.0168 19.0084Z" fill="#7E92A2"/>
</svg>
