<svg width="19" height="13" viewBox="0 0 19 13" fill="none" xmlns="http://www.w3.org/2000/svg">
<path d="M0 1.30676V12.9431H1.31818V4.10222H1.43182L5.06818 12.9431H6.34091L9.97727 4.10222H10.0909V12.9431H11.4091V1.30676H9.72727L5.77273 10.9659H5.63636L1.68182 1.30676H0Z" fill="#092C4C"/>
<path d="M13.6207 7.12494H18.8707V6.12494H15.3935V6.07949L16.8707 4.78404C18.1207 3.69313 18.6662 3.05676 18.6662 2.12494C18.6662 0.943127 17.6435 0.0567627 16.1435 0.0567627C14.6435 0.0567627 13.5753 0.920399 13.5753 2.21585H14.7571C14.7571 1.51131 15.3026 1.03404 16.1207 1.03404C16.8935 1.03404 17.4844 1.46585 17.4844 2.14767C17.4844 2.73858 17.0753 3.1704 16.2798 3.87494L13.6207 6.23858V7.12494Z" fill="#092C4C"/>
</svg>
