<svg width="25" height="25" viewBox="0 0 25 25" fill="none" xmlns="http://www.w3.org/2000/svg">
<path d="M16.5 23.25H8.49998C3.87998 23.25 3.01998 21.1 2.79998 19.01L2.04998 11C1.93998 9.95 1.90998 8.4 2.94998 7.24C3.84998 6.24 5.33998 5.76 7.49998 5.76H17.5C19.67 5.76 21.16 6.25 22.05 7.24C23.09 8.4 23.06 9.95 22.95 11.01L22.2 19C21.98 21.1 21.12 23.25 16.5 23.25ZM7.49998 7.25C5.80998 7.25 4.64998 7.58 4.05998 8.24C3.56998 8.78 3.40998 9.61 3.53998 10.85L4.28998 18.86C4.45998 20.44 4.88998 21.75 8.49998 21.75H16.5C20.1 21.75 20.54 20.44 20.71 18.85L21.46 10.86C21.59 9.61 21.43 8.78 20.94 8.24C20.35 7.58 19.19 7.25 17.5 7.25H7.49998Z" fill="#7E92A2"/>
<path d="M16.5 7.25C16.09 7.25 15.75 6.91 15.75 6.5V5.7C15.75 3.92 15.75 3.25 13.3 3.25H11.7C9.24998 3.25 9.24998 3.92 9.24998 5.7V6.5C9.24998 6.91 8.90998 7.25 8.49998 7.25C8.08998 7.25 7.74998 6.91 7.74998 6.5V5.7C7.74998 3.94 7.74998 1.75 11.7 1.75H13.3C17.25 1.75 17.25 3.94 17.25 5.7V6.5C17.25 6.91 16.91 7.25 16.5 7.25Z" fill="#7E92A2"/>
<path d="M12.5 17.25C9.74998 17.25 9.74998 15.55 9.74998 14.53V13.5C9.74998 12.09 10.09 11.75 11.5 11.75H13.5C14.91 11.75 15.25 12.09 15.25 13.5V14.5C15.25 15.54 15.25 17.25 12.5 17.25ZM11.25 13.25C11.25 13.33 11.25 13.42 11.25 13.5V14.53C11.25 15.56 11.25 15.75 12.5 15.75C13.75 15.75 13.75 15.59 13.75 14.52V13.5C13.75 13.42 13.75 13.33 13.75 13.25C13.67 13.25 13.58 13.25 13.5 13.25H11.5C11.42 13.25 11.33 13.25 11.25 13.25Z" fill="#7E92A2"/>
<path d="M14.5 15.27C14.13 15.27 13.8 14.99 13.76 14.61C13.71 14.2 14 13.82 14.41 13.77C17.05 13.44 19.58 12.44 21.71 10.89C22.04 10.64 22.51 10.72 22.76 11.06C23 11.39 22.93 11.86 22.59 12.11C20.25 13.81 17.49 14.9 14.59 15.27C14.56 15.27 14.53 15.27 14.5 15.27Z" fill="#7E92A2"/>
<path d="M10.5 15.28C10.47 15.28 10.44 15.28 10.41 15.28C7.66998 14.97 4.99998 13.97 2.68998 12.39C2.34998 12.16 2.25998 11.69 2.48998 11.35C2.71998 11.01 3.18998 10.92 3.52998 11.15C5.63998 12.59 8.06998 13.5 10.57 13.79C10.98 13.84 11.28 14.21 11.23 14.62C11.2 15 10.88 15.28 10.5 15.28Z" fill="#7E92A2"/>
</svg>
