<svg width="24" height="24" viewBox="0 0 24 24" fill="none" xmlns="http://www.w3.org/2000/svg">
<path d="M19.9998 19.26H10.9298C10.4798 19.26 10.1098 18.89 10.1098 18.44C10.1098 17.99 10.4798 17.62 10.9298 17.62H19.9998C20.4498 17.62 20.8198 17.99 20.8198 18.44C20.8198 18.9 20.4498 19.26 19.9998 19.26Z" fill="#7E92A2"/>
<path d="M19.9998 12.97H10.9298C10.4798 12.97 10.1098 12.6 10.1098 12.15C10.1098 11.7 10.4798 11.33 10.9298 11.33H19.9998C20.4498 11.33 20.8198 11.7 20.8198 12.15C20.8198 12.6 20.4498 12.97 19.9998 12.97Z" fill="#7E92A2"/>
<path d="M19.9998 6.67004H10.9298C10.4798 6.67004 10.1098 6.30004 10.1098 5.85004C10.1098 5.40004 10.4798 5.03004 10.9298 5.03004H19.9998C20.4498 5.03004 20.8198 5.40004 20.8198 5.85004C20.8198 6.30004 20.4498 6.67004 19.9998 6.67004Z" fill="#7E92A2"/>
<path d="M4.90981 8.03004C4.68981 8.03004 4.47981 7.94004 4.32981 7.79004L3.41981 6.88004C3.09981 6.56004 3.09981 6.04004 3.41981 5.72004C3.73981 5.40004 4.25981 5.40004 4.57981 5.72004L4.90981 6.05004L7.04981 3.91004C7.36981 3.59004 7.88981 3.59004 8.20981 3.91004C8.52981 4.23004 8.52981 4.75004 8.20981 5.07004L5.48981 7.79004C5.32981 7.94004 5.12981 8.03004 4.90981 8.03004Z" fill="#7E92A2"/>
<path d="M4.90981 14.33C4.69981 14.33 4.48981 14.25 4.32981 14.09L3.41981 13.18C3.09981 12.86 3.09981 12.34 3.41981 12.02C3.73981 11.7 4.25981 11.7 4.57981 12.02L4.90981 12.35L7.04981 10.21C7.36981 9.89004 7.88981 9.89004 8.20981 10.21C8.52981 10.53 8.52981 11.05 8.20981 11.37L5.48981 14.09C5.32981 14.25 5.11981 14.33 4.90981 14.33Z" fill="#7E92A2"/>
<path d="M4.90981 20.33C4.69981 20.33 4.48981 20.25 4.32981 20.09L3.41981 19.18C3.09981 18.86 3.09981 18.34 3.41981 18.02C3.73981 17.7 4.25981 17.7 4.57981 18.02L4.90981 18.35L7.04981 16.21C7.36981 15.89 7.88981 15.89 8.20981 16.21C8.52981 16.53 8.52981 17.05 8.20981 17.37L5.48981 20.09C5.32981 20.25 5.11981 20.33 4.90981 20.33Z" fill="#7E92A2"/>
</svg>
