<svg width="25" height="25" viewBox="0 0 25 25" fill="none" xmlns="http://www.w3.org/2000/svg">
<path d="M7.5 15.19C7.09 15.19 6.75 14.85 6.75 14.44V11.23C6.75 10.82 7.09 10.48 7.5 10.48C7.91 10.48 8.25 10.82 8.25 11.23V14.44C8.25 14.86 7.91 15.19 7.5 15.19Z" fill="#7E92A2"/>
<path d="M12.5 16.93C12.09 16.93 11.75 16.59 11.75 16.18V9.5C11.75 9.09 12.09 8.75 12.5 8.75C12.91 8.75 13.25 9.09 13.25 9.5V16.18C13.25 16.59 12.91 16.93 12.5 16.93Z" fill="#7E92A2"/>
<path d="M17.5 15.19C17.09 15.19 16.75 14.85 16.75 14.44V11.23C16.75 10.82 17.09 10.48 17.5 10.48C17.91 10.48 18.25 10.82 18.25 11.23V14.44C18.25 14.86 17.91 15.19 17.5 15.19Z" fill="#7E92A2"/>
<path d="M15.5 23.25H9.5C4.07 23.25 1.75 20.93 1.75 15.5V9.5C1.75 4.07 4.07 1.75 9.5 1.75H15.5C20.93 1.75 23.25 4.07 23.25 9.5V15.5C23.25 20.93 20.93 23.25 15.5 23.25ZM9.5 3.25C4.89 3.25 3.25 4.89 3.25 9.5V15.5C3.25 20.11 4.89 21.75 9.5 21.75H15.5C20.11 21.75 21.75 20.11 21.75 15.5V9.5C21.75 4.89 20.11 3.25 15.5 3.25H9.5Z" fill="#7E92A2"/>
</svg>
